<svg width="47" height="40" viewBox="0 0 47 40" fill="none" xmlns="http://www.w3.org/2000/svg">
<path fill-rule="evenodd" clip-rule="evenodd" d="M17.5516 3.49206L32.3417 9.7361C36.8377 11.6341 40.3761 13.1279 42.7764 14.5425C45.1473 15.9397 47 17.5963 47 20C47 22.4037 45.1473 24.0603 42.7764 25.4575C40.3761 26.8721 36.8377 28.3659 32.3418 30.2639L17.5516 36.5079C14.8036 37.6681 12.6659 38.5706 10.9967 39.1563C9.36324 39.7295 7.90341 40.1059 6.60535 39.9734C3.45692 39.6521 0.747723 37.6263 0.0920329 34.7661C-0.18587 33.5539 0.202719 32.1978 0.761026 30.7891C1.3391 29.3305 2.25786 27.4578 3.42834 25.0719L3.45991 25.0076C4.3747 23.1429 4.72675 22.407 4.90638 21.673C5.1766 20.5688 5.1766 19.4312 4.90638 18.327C4.72675 17.593 4.3747 16.8572 3.45991 14.9925L3.42834 14.9281C2.25786 12.5422 1.3391 10.6695 0.761025 9.21087C0.202718 7.80215 -0.18587 6.44609 0.0920347 5.23387C0.747727 2.37374 3.45692 0.347855 6.60535 0.0265902C7.90341 -0.105863 9.36324 0.270548 10.9967 0.843701C12.6659 1.42942 14.8036 2.33193 17.5516 3.49206ZM9.84813 3.72575C8.24317 3.16259 7.42326 3.03824 6.95984 3.08552C5.01846 3.28362 3.61644 4.49114 3.29781 5.88098C3.23853 6.13958 3.27993 6.73908 3.83449 8.13835C4.3641 9.47467 5.22976 11.2418 6.43857 13.7058C6.46505 13.7598 6.49122 13.8131 6.51709 13.8658C7.32815 15.5185 7.83761 16.5567 8.10232 17.6384C8.48344 19.1958 8.48344 20.8042 8.10232 22.3616C7.83761 23.4433 7.32814 24.4815 6.51708 26.1342C6.49122 26.1869 6.46504 26.2402 6.43857 26.2942C5.22976 28.7582 4.3641 30.5253 3.83449 31.8617C3.27993 33.2609 3.23853 33.8604 3.29781 34.119C3.61644 35.5089 5.01846 36.7164 6.95985 36.9145C7.42325 36.9618 8.24317 36.8374 9.84813 36.2743C11.4053 35.7278 13.4459 34.8672 16.2654 33.6769L30.8637 27.5138C35.5207 25.5478 38.8484 24.1389 41.0325 22.8518C43.2696 21.5334 43.7209 20.677 43.7209 20C43.7209 19.323 43.2696 18.4666 41.0325 17.1482C38.8484 15.8611 35.5207 14.4522 30.8638 12.4862L16.2654 6.32311C13.4459 5.13277 11.4053 4.27216 9.84813 3.72575Z" fill="#02040F"/>
</svg>
