<svg width="92" height="90" viewBox="0 0 92 90" fill="none" xmlns="http://www.w3.org/2000/svg">
<g clip-path="url(#clip0_8_627)">
<path fill-rule="evenodd" clip-rule="evenodd" d="M0 -2H92V90H0V-2Z" fill="white"/>
<path fill-rule="evenodd" clip-rule="evenodd" d="M24.5354 10.599C24.1646 10.6605 23.7942 10.7226 23.3928 10.7226C22.9604 10.7226 22.4974 10.6605 22.065 10.599C22.2502 12.4828 22.2807 15.3241 22.2807 19.3391C22.2807 23.7864 22.1266 29.1607 16.7218 29.1607C11.6878 29.1607 10.6993 26.1027 10.6993 20.6673C10.6993 16.8992 10.7609 13.2861 11.0702 10.599C10.4831 10.6605 9.86552 10.7226 9.27894 10.7226C8.66133 10.7226 7.64184 10.6605 7.02423 10.599C7.11682 11.8962 7.45618 14.3977 7.45618 17.4862V23.0146C7.45618 28.45 10.5447 30.8283 15.8259 30.8283C21.1686 30.8283 24.072 27.8944 24.1025 22.0572C24.134 17.5168 24.3192 12.7606 24.5354 10.599ZM43.0661 10.7842C42.6953 10.8767 42.3249 10.9388 41.954 10.9388C41.5837 10.9388 41.2128 10.8767 40.8419 10.7842C41.0582 13.6254 41.0582 20.2655 41.0582 25.0832C37.1979 21.0683 32.0088 15.4167 27.6545 10.6295C27.4073 10.6295 27.0985 10.6601 26.8823 10.6601C26.666 10.6601 26.3262 10.6295 26.141 10.6295C26.2026 11.9268 26.2646 14.181 26.2646 17.2695C26.2646 22.0567 25.8632 29.3759 25.647 30.4575C26.0484 30.3649 26.4503 30.3028 26.8512 30.3028C27.2216 30.3028 27.6235 30.3649 28.0249 30.4575C27.9013 29.3759 27.7776 25.5466 27.7776 22.0567C27.7776 19.4932 27.8082 17.4242 27.8702 15.8181C32.5033 20.7284 37.1664 25.7629 41.3049 30.6426C41.4901 30.5811 41.7684 30.5811 41.9536 30.5811C42.1698 30.5811 42.4475 30.5811 42.6638 30.6426C42.6327 27.956 42.6022 23.2924 42.6638 20.2344C42.6953 17.795 42.8804 13.5639 43.0661 10.7842ZM58.6009 24.0026C58.6009 17.826 47.7297 19.7404 47.7297 14.9843C47.7297 13.224 49.3052 11.8342 51.559 11.8342C53.7822 11.8342 54.9558 13.0694 55.5123 14.3977C55.5123 14.3977 55.8517 13.5018 56.1295 13.0694C56.5003 12.5134 56.5929 12.4828 57.18 12.0194C55.8822 11.124 54.0289 10.4133 51.8057 10.4133C47.6371 10.4133 44.4865 12.4208 44.4865 15.9727C44.4865 22.5512 54.9873 20.3581 54.9873 25.1453C54.9873 27.0907 53.0409 29.1602 50.2927 29.1602C47.513 29.1602 45.9685 27.6777 45.4745 26.1643C45.4745 26.1643 45.1967 27.0601 44.7953 27.6162C44.2703 28.3264 44.0541 28.419 43.5911 28.8208C44.7953 29.7162 47.3894 30.9204 49.8608 30.9204C55.0799 30.9204 58.5703 28.8824 58.6009 24.0026ZM84.9758 10.7842C84.5739 10.8767 84.2345 10.9388 83.8637 10.9388C83.5243 10.9388 83.1535 10.8767 82.8141 10.7842C82.3201 13.162 79.4478 22.7669 78.3357 26.4425H78.2742C77.3167 23.0762 74.1351 13.5949 73.4874 10.7842C73.1166 10.8767 72.7462 10.9388 72.3754 10.9388C71.9735 10.9388 71.6036 10.8767 71.2323 10.7842C70.5221 13.5944 67.5576 22.4581 66.2599 26.4425H66.2293C64.5922 20.8215 63.295 16.1274 62.0598 10.7842C61.4426 10.8767 60.8556 10.9388 60.269 10.9388C59.6509 10.9388 58.7245 10.8767 58.0754 10.7842C58.5398 11.8342 60.238 16.4978 60.6699 18.0112C62.1839 22.86 63.3265 27.3689 64.1293 30.4579C64.5001 30.3959 64.9321 30.3033 65.3029 30.3033C65.7354 30.3033 66.1057 30.3959 66.5071 30.4579C67.897 25.7633 70.43 18.5363 71.4795 15.2936H71.5411C73.2531 20.3016 74.8186 25.3586 76.2357 30.4579C76.6376 30.3959 77.0394 30.3033 77.4399 30.3033C77.8107 30.3033 78.2126 30.3959 78.583 30.4579C79.9418 25.7939 84.0799 13.224 84.9758 10.7842Z" fill="#0C0E0F"/>
<path fill-rule="evenodd" clip-rule="evenodd" d="M38.9586 60.6001C39.2364 60.1991 38.7113 60.075 38.5262 60.1061C38.5877 59.8283 38.9586 59.5811 39.2364 59.7362C39.4531 59.6121 39.6382 59.5815 39.7308 59.8593C39.8234 60.1676 40.1012 60.1996 40.3484 60.1996C40.8735 60.1996 41.1207 59.8288 41.0897 59.3959C41.0897 59.2422 41.1823 58.9019 41.3059 58.8093C41.3674 58.7468 40.7809 58.7468 40.6572 58.3153C40.41 58.469 39.8234 58.5315 39.6382 58.3153C39.7308 58.2847 40.1012 58.1912 40.0086 57.9444C39.885 57.8829 39.7924 57.8829 39.6382 57.975C39.6688 57.7893 39.9781 57.6667 39.916 57.6051C39.916 57.4504 39.6688 57.512 39.5762 57.5426C39.6688 57.4504 39.7308 57.3263 39.7924 57.1727C39.6688 56.987 39.4836 56.987 39.2364 57.018C39.2984 56.8324 39.6382 56.6481 39.5762 56.493C39.4836 56.4009 39.36 56.4625 39.2364 56.4625C39.2984 56.4625 39.2984 56.4625 39.36 56.4009C39.391 56.3384 39.4836 56.2462 39.5452 56.1537C39.5452 56.0606 39.36 56.0296 39.2053 56.0606C39.391 55.7828 39.5757 55.7212 39.9155 55.5356C39.9776 55.4425 39.9155 55.2883 39.8229 55.2883C39.6378 55.3499 39.4831 55.2578 39.4526 55.0411C39.391 55.0105 39.391 54.948 39.391 54.917C39.4836 54.917 39.6382 54.9475 39.6688 54.8554C39.7924 54.8249 39.7924 54.7633 39.6688 54.6698C39.5762 54.6698 39.4526 54.7003 39.36 54.6698C39.2364 54.6082 39.36 54.4851 39.2053 54.4851C38.866 54.4225 38.8039 53.9901 38.9891 53.8054C38.9891 53.7429 39.2979 54.2369 39.391 53.8975C39.36 53.6197 39.1438 53.4651 38.897 53.4035C39.2053 53.0952 39.6382 53.2794 39.7308 53.4035C39.8234 53.4651 39.916 53.4035 39.9781 53.4035C39.9781 53.373 40.0707 53.3114 40.0086 53.2179C39.9781 53.0322 39.8234 53.0322 39.6688 52.9706C39.9776 52.7234 40.441 52.8475 40.5952 53.2179C40.6878 53.3109 40.9966 53.2794 40.935 53.4956C40.935 53.7119 40.7494 53.4956 40.7494 54.4846C40.7804 55.0096 41.1202 55.6267 41.2128 55.5652C41.2744 55.473 41.367 55.3795 41.367 55.2568C41.367 55.1943 41.3054 55.2568 41.2744 55.1943C41.367 54.855 41.4596 54.6693 41.6137 54.4225H41.3975C41.4591 54.2369 41.6448 54.0526 41.7679 53.8975C41.7984 53.8359 41.5517 53.8054 41.4591 53.7429C41.5517 53.6508 41.8605 53.4035 41.7984 53.373C41.7679 53.2799 41.7058 53.2799 41.6133 53.1873C41.7058 53.0952 41.9841 53.0327 42.0457 52.7854C42.0457 52.7239 41.9531 52.6317 41.8915 52.6317H42.2313C42.3986 52.6135 42.5677 52.6346 42.7253 52.6933C42.7564 52.6317 42.7253 52.5077 42.6638 52.4155C42.9726 52.4461 43.0652 52.4155 43.0962 52.1683C43.1578 52.1683 43.1888 52.2604 43.2814 52.2604C43.5902 52.3535 43.8064 52.5077 44.0226 52.7239C44.2698 52.5382 44.6092 52.5382 44.8874 52.6007C44.98 52.5382 45.0111 52.5382 45.1347 52.5382C44.8874 52.8475 45.4129 52.8785 45.6602 52.7239C45.9074 53.0322 45.9074 53.2794 45.6602 53.5582C45.8143 53.6503 45.938 53.9281 45.9995 53.8975C46.3394 53.4651 47.0496 53.3109 46.9574 53.0327C46.8644 52.7243 46.6787 52.7243 46.3704 52.7243C46.4319 52.6012 46.7723 52.5387 47.05 52.5387V52.1993C47.5751 52.2914 47.7913 52.879 48.0996 52.9711C48.4089 53.0327 48.7792 52.848 48.9955 52.6012H49.026C48.9955 53.2183 49.6131 52.7243 49.7987 52.8484C49.8293 53.3119 48.8723 53.4961 48.8413 53.7128C48.7482 53.9906 48.8718 54.0531 48.9334 54.1452C48.8718 54.1452 48.5941 54.1758 48.5941 54.3309C48.7477 54.5781 49.1806 54.423 49.2728 54.3003C49.3658 53.9911 49.1806 53.8985 49.1191 53.8369C49.2112 53.8064 49.3047 53.929 49.4584 53.8064C49.4584 53.7133 49.4279 53.6517 49.3663 53.6207C49.6135 53.7128 49.7362 53.8064 50.0765 53.7438C50.1997 53.7133 50.1381 53.5591 50.1381 53.4966C50.3237 53.5591 50.5089 53.7128 50.6631 53.8059C50.8488 53.7433 50.8177 53.5586 50.7256 53.3735C50.9103 53.3119 51.0955 53.8369 51.3428 53.929C51.4349 53.929 51.5284 53.8369 51.5284 53.7128C51.59 53.7128 51.59 53.8059 51.59 53.8059C51.8678 55.0101 52.3002 53.898 52.4859 54.0531C52.4859 54.0531 52.4859 54.0837 52.4553 54.0837C52.3937 54.1758 52.3622 54.392 52.3622 54.5161C52.5479 55.2573 51.8372 55.3804 51.8372 55.4415C51.8678 57.0786 50.2312 57.0786 49.3052 56.8624C49.5525 57.5111 50.2307 57.5111 50.2932 57.9745C50.3237 58.1291 50.3853 58.6231 50.5094 58.7157C50.7566 58.9014 51.1881 58.6542 51.4043 58.531C51.7752 58.531 51.7752 58.7463 51.8367 58.8088C52.2076 58.8704 52.4854 58.6542 52.7942 58.5616C52.9183 58.6231 52.6085 58.9625 52.7326 58.9625C52.8247 58.9625 52.8247 58.9009 52.8873 58.9009C52.9178 59.0866 52.7942 59.2718 52.8247 59.3949C52.8247 59.4255 52.9178 59.488 52.9794 59.488C52.9794 59.5801 52.8247 59.5185 52.7321 59.7352C52.8243 59.8273 53.0405 59.7658 53.0715 59.7658C52.9794 59.9505 52.64 60.1667 52.64 60.2598C52.64 60.2903 52.8247 60.2903 52.8873 60.2903C52.7942 60.4449 52.547 60.476 52.547 60.5986C52.547 60.6292 52.64 60.6917 52.64 60.6917C52.547 60.8148 52.2076 60.907 52.2381 61.0311C52.3613 61.0616 52.4544 61.1241 52.5465 61.1551C52.2071 61.4024 52.0525 61.4635 51.7131 61.4635C51.7131 61.5866 51.6816 61.6797 51.589 61.8028C51.5275 61.8334 51.4034 61.9885 51.2497 61.9885C51.3418 61.6802 51.1872 61.4019 50.9404 61.4019C50.9099 61.4019 50.9099 61.4635 50.9099 61.494C51.0029 61.8024 50.8483 62.1121 50.4159 62.019C50.2302 62.2663 49.7057 62.2663 49.4279 61.9885L49.3663 61.9269C49.6135 61.8964 49.7362 61.8964 49.9529 61.8028C49.9529 61.6797 49.9529 61.6491 49.8913 61.5556C49.6441 61.5556 49.3663 61.6487 49.1196 61.8028C49.1196 61.4635 49.3052 61.0311 49.6135 61.0311C49.7057 60.7838 49.7367 60.8148 49.7992 60.7227C49.6446 60.6296 49.3668 60.5371 49.1811 60.5986H49.089C49.3052 60.1046 49.6446 60.0736 49.9534 60.1977C50.0464 60.1662 50.2006 60.0736 50.2937 60.1046C50.4793 60.1046 50.4793 60.3824 50.633 60.4755C50.8187 60.5371 51.0349 60.2593 51.0349 60.0736C51.0349 59.6717 50.4793 59.5796 50.0469 59.6717C49.7376 59.7343 49.4599 59.6717 49.2126 59.487C48.993 59.3288 48.7866 59.1528 48.5955 58.9611C48.533 58.9611 48.533 58.9926 48.533 59.0541C48.5024 59.1773 48.3483 59.3935 48.533 59.5791C48.6876 59.6713 48.9964 59.7648 48.9964 60.0116C48.9964 60.1037 48.9964 60.2588 48.8427 60.2893C48.7497 60.444 48.5334 60.475 48.5024 60.6912C48.5024 60.969 48.533 61.0306 48.6881 61.2778C48.5334 61.3084 48.2557 61.2162 48.101 61.1547C48.0089 61.2162 47.8858 61.463 47.8232 61.5861C47.6696 61.6487 47.6385 61.2778 47.576 61.3084C47.5455 61.3084 47.3288 61.5556 47.3903 61.5861C47.2982 61.6487 47.2056 61.3084 47.2056 61.2162C47.02 61.3084 46.9584 61.494 46.9584 61.6487C46.8653 61.5861 46.8038 61.463 46.7727 61.3709H46.7112C46.5871 61.5556 46.4324 61.5861 46.2162 61.5556C46.1236 61.5556 46.2783 61.3709 46.2783 61.3084H46.1857C46.0931 61.463 45.5681 61.463 45.5681 61.3709C45.6917 61.2778 45.8463 61.1236 45.8153 60.969C45.7537 60.8769 45.6917 60.8769 45.6611 60.9065C45.4755 61.0306 45.3829 61.2158 45.1667 61.4014C44.9815 61.463 44.8273 61.4014 44.7342 61.2773C44.456 61.2773 44.2092 61.2773 43.962 61.463H43.931C44.0236 60.969 44.1782 60.8764 44.456 60.7833C44.456 60.6912 44.456 60.5361 44.3944 60.475C44.2092 60.3509 44.024 60.3819 43.8078 60.475C43.7773 60.3509 44.0551 59.8264 44.4565 60.0116C44.4875 60.0116 44.549 59.949 44.549 59.9185C44.4565 59.6102 44.2713 59.6102 44.0551 59.6713C44.0551 59.3935 44.4875 59.0541 44.7963 59.2703C44.8273 59.2398 44.9199 59.1773 44.9815 59.1773C45.2287 59.1467 45.2597 59.3935 45.4139 59.4865C45.5065 59.5171 45.6917 59.5787 45.8463 59.7338C46.0005 59.949 46.1241 59.949 46.4329 60.0116C46.6186 60.0116 46.8038 60.0116 47.02 59.949C47.3283 59.8569 47.3283 59.424 47.0505 59.3935C46.7112 59.3319 46.4324 59.4866 46.1241 59.3935C45.6611 59.2703 45.5681 59.1462 45.5681 58.5601C45.1667 58.7448 44.2708 59.0541 44.0546 59.0852C43.962 59.2398 43.7768 59.2708 43.6222 59.2708C43.5296 59.394 43.7768 59.6717 43.8073 59.6717C43.7147 59.7648 43.0661 60.0736 43.1592 60.1042C43.1592 60.1657 43.1897 60.1657 43.2518 60.1972C43.1902 60.2588 43.0045 60.2893 42.9735 60.3509C42.9735 60.3815 43.0045 60.444 43.0661 60.444C42.9115 60.5361 42.7263 60.4745 42.5721 60.6287C42.4795 60.6912 42.3249 60.7218 42.1397 60.7833C42.0781 60.8764 42.2013 60.969 42.1397 61.0306C41.3985 61.2162 41.2749 60.8144 41.0897 60.8769C40.9971 60.9065 40.8735 61.0306 40.7809 61.1241C40.8424 61.4019 40.5957 61.8334 40.3179 61.8334C40.1943 61.8028 40.41 61.6797 40.2558 61.494C40.2558 61.4635 40.1943 61.4635 40.1633 61.4019C40.0091 61.4019 40.0711 61.8959 39.7313 61.8334C39.6693 61.8028 39.6387 61.7413 39.5767 61.7413C39.2063 61.9885 39.0517 62.0806 38.6197 61.7413H38.5887C39.2989 61.5556 39.392 60.8769 38.4345 61.1241H38.3725C38.4641 60.7242 38.7113 60.6001 38.9586 60.6001ZM45.8458 55.1953V55.1031C46.1236 55.6282 46.7107 55.6897 47.2357 55.5666C48.1621 55.4425 49.4589 54.918 50.2932 54.918C50.571 54.918 51.2506 55.042 51.2506 55.4745C51.2506 55.7828 51.1576 55.9685 50.9414 56.1222C50.6636 56.3078 49.9534 56.4009 49.6446 56.4009C49.4589 56.4009 48.6871 56.4009 48.5325 56.0606C48.4093 56.03 48.2242 55.9685 48.0075 55.9685C47.3278 55.9685 46.5866 56.3078 46 56.3078C45.8458 56.3073 45.8148 55.4425 45.8458 55.1953ZM47.3278 53.9911C47.6371 54.1767 47.8218 54.517 48.1621 54.6707C48.2237 54.7638 47.4209 55.011 47.1422 55.011C46.6171 55.011 46.4634 54.7638 46.4634 54.517C46.4639 54.1763 46.9579 53.8064 47.3278 53.9911ZM33.8005 52.5396H40.2554V47.845H50.2932V52.5396H56.7786V62.5775H50.2932V69.3406L45.3208 71.1324L40.2558 69.3406V62.5775H33.8005V52.5396Z" fill="#D06332"/>
<path fill-rule="evenodd" clip-rule="evenodd" d="M33.8005 38.7346H56.7786V47.3816H33.8005V38.7346Z" fill="#E0EBF2"/>
<path fill-rule="evenodd" clip-rule="evenodd" d="M33.1829 38.1165V66.0359C33.1829 67.3642 34.0783 67.7035 34.8506 67.9508L45.3203 71.7495L55.7285 67.9508C56.5003 67.7035 57.4272 67.2721 57.4272 66.0359V38.1165H33.1829ZM33.8005 62.9474H39.885V69.248L34.851 67.3642C34.326 67.1785 33.801 66.7461 33.801 66.0359L33.8005 62.9474ZM56.7786 62.9474H50.7256V69.248L55.7285 67.3642C56.2536 67.1785 56.7781 66.7461 56.7781 66.0359L56.7786 62.9474ZM50.7256 47.845H56.7786V52.1072H50.7256V47.845ZM33.8005 47.845H39.885V52.1072H33.8005V47.845ZM38.897 60.6001C39.2364 60.1991 38.6808 60.075 38.4646 60.1061C38.5882 59.8283 38.9586 59.5811 39.2364 59.7362C39.453 59.5815 39.6688 59.5815 39.7308 59.8593C39.8234 60.1676 40.1012 60.1996 40.3484 60.1996C40.8424 60.1996 41.1207 59.8288 41.0281 59.3959C41.0281 59.2422 41.1207 58.9634 41.2753 58.8093C41.3059 58.7468 40.7498 58.7468 40.6577 58.3153C40.4105 58.469 39.7929 58.5625 39.6387 58.3153C39.6693 58.2847 40.1017 58.1296 40.0091 57.975C39.8239 57.8829 39.7929 57.975 39.6387 57.975C39.6387 57.7893 39.9785 57.6667 39.9165 57.6051C39.8239 57.4504 39.6693 57.6051 39.5461 57.6051C39.6387 57.4504 39.7318 57.3263 39.7318 57.1727C39.6697 56.987 39.4535 56.987 39.2373 57.018C39.2068 56.8324 39.6392 56.6481 39.5461 56.493C39.4845 56.4625 39.3609 56.493 39.2373 56.4625C39.2373 56.4625 39.2994 56.4625 39.2994 56.4009C39.392 56.3384 39.4845 56.2462 39.4845 56.1537C39.4845 56.0606 39.2994 56.0606 39.2063 56.0606C39.3609 55.7212 39.5767 55.7212 39.8859 55.5356C39.9165 55.4425 39.9165 55.3499 39.8244 55.3499C39.6392 55.3499 39.4845 55.2578 39.392 55.0416C39.392 55.011 39.3609 54.9485 39.392 54.9175C39.4845 54.9175 39.5771 54.9175 39.6697 54.8559C39.7933 54.8254 39.7318 54.7638 39.6697 54.7013C39.5771 54.6707 39.4535 54.7638 39.3609 54.6707C39.2063 54.6707 39.2994 54.486 39.1447 54.486C38.8049 54.4235 38.8049 53.9295 38.9901 53.7438C38.9901 53.7438 39.2989 54.1762 39.3609 53.8985C39.3609 53.6207 39.1137 53.466 38.8669 53.4045C39.1452 53.0961 39.5771 53.2804 39.7318 53.4045C39.8244 53.466 39.8859 53.4045 39.979 53.4045C39.979 53.3739 40.0716 53.3124 40.0096 53.2188C39.917 53.0331 39.8244 53.0331 39.6697 52.9716C39.917 52.7243 40.442 52.8484 40.6582 53.1878C40.7508 53.3119 40.998 53.2799 40.998 53.4961C40.998 53.7123 40.7818 53.4961 40.7818 54.4851C40.7818 55.0101 41.1216 55.6272 41.2142 55.5656C41.2758 55.4735 41.3068 55.38 41.3684 55.2573C41.3684 55.2573 41.2758 55.2573 41.2758 55.1948C41.3064 54.917 41.461 54.6698 41.6152 54.423H41.3989C41.3989 54.2373 41.6152 54.0531 41.7693 53.898C41.7693 53.8364 41.5221 53.8364 41.4605 53.7434C41.5221 53.6512 41.7999 53.404 41.7999 53.3735C41.7073 53.2804 41.6457 53.2804 41.6147 53.1878C41.6457 53.0957 41.9545 53.0331 42.0471 52.7859C42.0471 52.7243 41.8929 52.6322 41.8619 52.6322C41.8929 52.6017 42.0471 52.6322 42.2017 52.6322C42.5105 52.6017 42.7268 52.6322 42.7268 52.6322C42.7578 52.6017 42.6652 52.5081 42.6652 52.416C42.9124 52.4466 43.0666 52.416 43.0976 52.1688C43.1592 52.1688 43.1902 52.2609 43.2828 52.2609C43.53 52.354 43.8078 52.5081 44.024 52.7243C44.2713 52.5387 44.6106 52.5387 44.8889 52.5387C45.0125 52.5081 45.0745 52.5387 45.1361 52.5387C44.8889 52.848 45.4144 52.848 45.6616 52.6933C45.9088 53.0327 45.9088 53.2799 45.6616 53.5582C45.8158 53.6503 45.9394 53.9281 46.0009 53.8975C46.3408 53.4651 47.051 53.3109 46.9589 53.0327C46.8658 52.7243 46.6186 52.7243 46.3718 52.7243C46.4334 52.5387 46.7121 52.5387 47.0515 52.5387C47.0515 52.4155 47.0209 52.2914 47.0515 52.1993C47.5765 52.2914 47.7927 52.879 48.101 52.9406C48.4103 52.9711 48.7496 52.7859 48.9969 52.6012H49.0274C48.9969 53.1878 49.6145 52.7243 49.8002 52.8484C49.8307 53.3735 48.9353 53.4961 48.8427 53.7434C48.7496 53.9906 48.9348 54.0526 48.9964 54.1452C48.9348 54.1758 48.5955 54.1758 48.6265 54.3309C48.7802 54.5166 49.1821 54.423 49.2131 54.3003C49.3677 53.9911 49.121 53.8985 49.121 53.8369C49.1825 53.8064 49.3066 53.8985 49.4293 53.8064C49.4599 53.7133 49.3677 53.6517 49.3677 53.6207C49.5534 53.6512 49.7376 53.8064 50.0779 53.7128C50.2011 53.6512 50.0779 53.5591 50.1395 53.4656C50.3252 53.4961 50.5104 53.7128 50.6645 53.8059C50.8192 53.7433 50.7576 53.5586 50.727 53.3119C50.9118 53.2804 51.0969 53.8369 51.3442 53.8985C51.4363 53.929 51.5298 53.8064 51.5298 53.7128C51.5914 53.7128 51.5914 53.7433 51.5914 53.8059C51.9317 55.0101 52.3016 53.8364 52.4873 54.0531C52.5489 54.0531 52.4873 54.0837 52.4873 54.0837C52.3952 54.1758 52.3632 54.392 52.3952 54.5161C52.6104 55.2573 51.8387 55.4415 51.8692 55.4415C51.9317 57.0786 50.2321 57.1101 49.3682 56.9245C49.6154 57.4495 50.2326 57.5111 50.2946 57.974C50.3252 58.1287 50.3867 58.5611 50.5108 58.7153C50.7581 58.8699 51.1895 58.6231 51.4058 58.468C51.7766 58.5305 51.7766 58.7458 51.8382 58.8083C52.209 58.8699 52.4868 58.6227 52.8262 58.5305C52.9192 58.6227 52.6414 58.962 52.7956 58.9004C52.8262 58.9004 52.8262 58.8699 52.8887 58.9004C52.9192 59.0861 52.7956 59.2713 52.8262 59.3944C52.8887 59.425 52.9192 59.425 53.0424 59.4875C52.9808 59.5796 52.8887 59.5181 52.7951 59.7347C52.8257 59.7653 53.0424 59.7653 53.1354 59.7653C53.0424 59.95 52.703 60.1662 52.6414 60.2593C52.703 60.2898 52.8262 60.2898 52.8887 60.2898C52.8887 60.4445 52.6099 60.4755 52.5484 60.5982C52.6099 60.6287 52.6414 60.6287 52.703 60.6912C52.6099 60.8144 52.209 60.969 52.3011 61.0306C52.3627 61.0611 52.4558 61.1236 52.5484 61.1547C52.24 61.4019 52.0544 61.463 51.715 61.463C51.715 61.5861 51.715 61.6792 51.5909 61.8023C51.5294 61.8954 51.3437 61.988 51.1891 61.988C51.2821 61.6797 51.1891 61.4014 50.9418 61.4014C50.9418 61.463 50.9113 61.463 50.9113 61.4935C51.0044 61.8019 50.8497 62.1116 50.4173 62.0801C50.2316 62.3283 49.6455 62.3283 49.3677 61.988V61.8959C49.615 61.8959 49.7376 61.8959 49.9543 61.8028C49.9543 61.6797 49.9543 61.6491 49.8927 61.5866C49.6455 61.5561 49.3677 61.6797 49.121 61.8028C49.0904 61.4635 49.3066 61.0311 49.615 61.0311C49.7071 60.7227 49.7381 60.8148 49.7381 60.7227C49.615 60.6297 49.3682 60.5986 49.1825 60.5986C49.121 60.5986 49.0904 60.6292 49.0279 60.5986C49.2751 60.1046 49.646 60.0736 49.9543 60.1977C50.0474 60.1046 50.2016 60.012 50.2946 60.0736C50.4803 60.0736 50.5108 60.3819 50.634 60.4755C50.8196 60.5371 51.0359 60.2593 51.0359 60.0736C51.0359 59.6717 50.3872 59.6102 50.0479 59.6717C49.7386 59.7343 49.4608 59.6717 49.183 59.487C48.9974 59.3324 48.7811 59.1777 48.5964 58.993C48.5339 58.9615 48.5339 58.993 48.5339 59.0546C48.5034 59.1777 48.4108 59.394 48.5339 59.5796C48.6886 59.6717 48.9974 59.7653 49.0279 60.012C48.9974 60.1042 48.9974 60.2593 48.8742 60.3514C48.7501 60.4445 48.5339 60.5371 48.5339 60.7222C48.5034 60.9695 48.5339 61.0306 48.7501 61.2778C48.5339 61.3709 48.2561 61.2778 48.1015 61.2162C48.0709 61.2162 47.9168 61.494 47.8862 61.5861C47.7316 61.6487 47.639 61.2778 47.577 61.3084C47.5464 61.3709 47.3913 61.5556 47.3913 61.6487C47.2992 61.6792 47.2066 61.3084 47.1441 61.2778C47.0519 61.3709 46.9593 61.494 46.9593 61.6487C46.8663 61.5861 46.8047 61.494 46.7121 61.4014C46.588 61.5551 46.3718 61.6487 46.1866 61.5861C46.125 61.5556 46.2792 61.4014 46.2172 61.3709C46.2172 61.3084 46.1866 61.3709 46.1866 61.3709C46.094 61.494 45.5074 61.494 45.5074 61.3709C45.6621 61.2778 45.8162 61.1236 45.7547 60.969C45.7547 60.8769 45.6931 60.9065 45.6621 60.9065C45.4764 61.0306 45.3838 61.2773 45.1676 61.4014C44.9824 61.4935 44.8283 61.463 44.7352 61.3084C44.4569 61.2778 44.2102 61.2778 43.9629 61.494C43.9629 61.4635 43.9319 61.4635 43.9319 61.4635C44.0245 60.9695 44.1791 60.8769 44.4569 60.7838C44.4569 60.6917 44.4569 60.5982 44.3643 60.4755C44.2102 60.3824 43.9629 60.4449 43.8083 60.5371C43.7157 60.4449 44.0245 59.7653 44.4569 60.012C44.4879 60.012 44.4879 59.9495 44.5495 59.919C44.4569 59.6106 44.2717 59.6106 44.0555 59.7343C44.025 59.3324 44.488 59.0546 44.7968 59.2403C44.8278 59.1777 44.9204 59.1777 44.9819 59.1472C45.2292 59.1472 45.2602 59.3944 45.4144 59.4875C45.507 59.518 45.7537 59.5796 45.8468 59.7347C46.0009 59.95 46.1246 59.95 46.4334 60.0125C46.619 60.0125 46.8042 60.0125 46.9593 59.95C47.2987 59.8579 47.2987 59.425 47.0515 59.425C46.7121 59.3944 46.4334 59.4875 46.125 59.3944C45.6621 59.2713 45.5074 59.1472 45.5074 58.6227C45.1676 58.7458 44.2722 59.0551 44.0555 59.0861C43.9629 59.2407 43.8083 59.2718 43.6231 59.3333C43.5305 59.3949 43.8083 59.6727 43.8083 59.6727C43.8083 59.7658 43.0981 60.1051 43.1601 60.1051C43.1907 60.1667 43.2527 60.1667 43.2838 60.1982C43.2838 60.2903 43.0055 60.2903 42.9749 60.3519C43.006 60.3824 43.0675 60.4449 43.0986 60.4449C42.9749 60.5986 42.7277 60.5371 42.5735 60.6922C42.481 60.7227 42.3263 60.7843 42.2027 60.8153C42.0791 60.8778 42.2337 60.97 42.2027 61.0315C41.3999 61.2172 41.2763 60.8778 41.0906 60.9074C40.998 60.9074 40.8744 61.0315 40.7818 61.1246C40.8434 61.4024 40.5966 61.8964 40.2568 61.8964C40.1642 61.8033 40.3494 61.6802 40.2568 61.4945C40.2568 61.4639 40.1952 61.464 40.1642 61.464C40.01 61.464 40.0721 61.9274 39.7323 61.8338C39.6702 61.8338 39.6397 61.7417 39.5776 61.8033C39.2072 61.989 38.991 62.0811 38.5896 61.7417C39.2998 61.5561 39.3929 60.8774 38.3734 61.1246C38.4336 60.7242 38.6803 60.6001 38.897 60.6001ZM45.8458 55.1953C45.8458 55.1337 45.8458 55.1337 45.9074 55.1337C46.1236 55.6893 46.7107 55.7208 47.2357 55.6277C48.2237 55.474 49.4589 54.9175 50.2932 54.9175C50.571 54.9175 51.2506 55.0416 51.2506 55.474C51.2506 55.7823 51.1576 55.968 50.9414 56.1217C50.6636 56.3073 49.9534 56.4004 49.6446 56.4004C49.4589 56.4004 48.7487 56.3379 48.5325 56.0601C48.4093 55.968 48.2242 55.9055 48.0075 55.9055C47.3278 55.9055 46.5866 56.3073 46 56.3073C45.8458 56.3073 45.8148 55.4425 45.8458 55.1953ZM47.3278 53.9911C47.575 54.1767 47.7913 54.517 48.1621 54.7013C48.1621 54.7638 47.4209 55.0105 47.1421 55.0105C46.6171 55.0105 46.4634 54.7633 46.4634 54.5166C46.4639 54.2378 46.9579 53.8064 47.3278 53.9911ZM33.8005 52.5396H40.2554V47.845H50.2932V52.5396H56.7786V62.5775H50.2932V69.3406L45.3208 71.1324L40.2558 69.3406V62.5775H33.8005V52.5396Z" fill="#0C0E0F"/>
<path fill-rule="evenodd" clip-rule="evenodd" d="M33.5538 69.9277C33.5538 69.9277 34.3876 69.5568 34.9747 69.742L45.2592 73.4477L55.235 69.8652C56.254 69.4953 57.0258 69.8652 57.0258 69.9893V73.9121C56.6865 73.7264 56.0068 73.4797 55.235 73.788L45.2592 77.2474L35.3455 73.6949C34.5733 73.4477 33.9862 73.7264 33.5542 73.8806L33.5538 69.9277Z" fill="#E7EEF3"/>
<path fill-rule="evenodd" clip-rule="evenodd" d="M56.4077 72.5222C56.0994 72.6759 55.6359 72.8306 55.3271 72.9232H55.235C55.2966 72.7695 55.3271 72.5838 55.2966 72.4292C55.1419 72.1514 55.0493 71.812 54.8947 71.4717C54.8642 71.3171 54.709 71.2861 54.6169 71.1939H54.6475C54.9558 71.0393 55.3887 70.9467 55.6665 70.7921C55.7595 70.7615 55.8521 70.7 55.9758 70.7615C56.0063 70.8856 56.1605 70.9777 56.1605 71.1324C56.0068 71.2245 55.9132 71.0698 55.8211 71.0393C55.6355 70.9777 55.3887 71.0699 55.203 71.1939C55.1415 71.1939 55.203 71.2245 55.203 71.2861C55.2345 71.4102 55.2961 71.5648 55.3271 71.7185C55.5433 71.6569 55.7595 71.6264 55.8211 71.4102C55.8211 71.3796 55.8517 71.3796 55.9132 71.3796C56.0063 71.4102 55.9758 71.5028 56.0063 71.5653C56.0063 71.6574 56.0984 71.75 56.0984 71.8125C55.9753 71.8431 55.8512 71.6579 55.7285 71.75C55.6355 71.75 55.5429 71.8125 55.4498 71.8431C55.4813 72.0903 55.5429 72.337 55.666 72.5227C55.8517 72.5843 56.2531 72.4912 56.3457 72.1824C56.4072 72.0903 56.3457 71.9662 56.4387 71.9046C56.5003 71.8431 56.5308 71.9662 56.5308 71.9967C56.5313 72.1509 56.5929 72.4903 56.4077 72.5222ZM54.3697 73.263C54.3391 73.263 54.184 73.3551 54.0294 73.3551C54.0294 73.2935 54.0919 73.263 54.0919 73.1389C54.184 72.8306 53.8132 72.1509 53.6595 71.718C53.5048 71.6564 53.3512 71.8421 53.3192 71.9652C53.2271 71.9958 53.2576 72.1509 53.1655 72.1815C53.0414 72.1815 53.1349 72.0583 53.0724 71.9652C53.0419 71.9037 52.9803 71.8421 52.9803 71.749C52.9803 71.7185 54.0299 71.3791 54.4317 71.224C54.5558 71.1935 54.5558 71.3787 54.6479 71.4097C54.6479 71.5018 54.772 71.6259 54.6479 71.718C54.5558 71.718 54.5558 71.5643 54.4623 71.5643C54.3391 71.4712 54.1845 71.5018 54.0299 71.5643C53.9377 71.5018 53.9993 71.6259 53.9993 71.6564C54.1234 72.0583 54.278 72.5829 54.4628 72.9222C54.5253 73.0153 54.6484 73.0153 54.71 73.1079C54.6475 73.1394 54.5243 73.1394 54.3697 73.263ZM53.0414 73.6334C52.609 73.3556 52.115 72.9537 51.6821 72.6144C51.6821 72.5838 51.6205 72.5838 51.6205 72.6144C51.8367 73.0162 51.8677 73.4477 52.1465 73.8185C52.208 73.8801 52.3617 73.8801 52.3002 73.9732C52.2081 74.0348 52.1145 73.9732 52.0224 74.0653C51.9303 74.0348 51.8367 74.1584 51.7752 74.0348C51.9298 73.6329 51.6821 73.263 51.5895 72.8611C51.5279 72.769 51.4974 72.6139 51.4348 72.4903C51.2501 72.5218 51.1571 72.7065 51.0955 72.8611C51.0339 72.9532 51.0034 72.8611 50.9409 72.8306C50.8487 72.769 50.7561 72.6759 50.6325 72.6759C50.4766 72.7055 50.329 72.7689 50.2001 72.8616C50.2307 73.0473 50.2932 73.2635 50.3858 73.3866C50.3858 73.4482 50.4163 73.4482 50.4788 73.4482C50.571 73.3866 50.7566 73.3561 50.8182 73.1398H50.8487C50.9409 73.2639 51.0034 73.3871 51.0034 73.4801C50.9409 73.5417 50.9103 73.4486 50.8487 73.4801C50.7256 73.4801 50.571 73.5417 50.4163 73.6033C50.5094 73.8195 50.571 74.0357 50.6636 74.2214C50.7261 74.3135 50.9108 74.3135 51.0039 74.2519C51.2816 74.1598 51.4353 73.8811 51.4353 73.6033H51.5284C51.6205 73.7274 51.6205 73.9126 51.6821 74.0667C51.6821 74.1283 51.6821 74.1598 51.6205 74.2214C51.2506 74.3135 50.9409 74.407 50.571 74.5607C50.5094 74.5607 50.4163 74.5913 50.3237 74.6538C50.2932 74.5913 50.2932 74.6538 50.2932 74.5913C50.2307 74.5607 50.2932 74.5607 50.2932 74.4992C50.4163 74.2214 50.2306 73.9126 50.077 73.4801C50.0464 73.3561 49.9529 72.9542 49.7367 72.9542C49.7061 72.9542 49.7061 73.0167 49.7061 73.0167V73.1088C49.6445 73.1088 49.5524 73.1088 49.5204 73.1394C49.5204 73.1394 49.4589 73.1394 49.4589 73.2009C49.4589 73.3866 49.5519 73.5412 49.6135 73.7269C49.7367 74.0352 49.7992 74.4371 50.077 74.6533C50.1385 74.6839 50.077 74.6839 50.0464 74.7454C49.8918 74.807 49.7061 74.807 49.5524 74.9001C49.4594 74.8376 49.5524 74.6839 49.5524 74.5908C49.5524 74.4371 49.5209 74.2514 49.4594 74.0658C49.3672 73.8801 49.3057 73.6949 49.2121 73.4477C49.1816 73.5408 49.1816 73.6949 49.12 73.788C49.0895 74.1274 49.0895 74.4982 49.0895 74.8376C49.0895 74.9001 49.0269 74.9001 48.9964 74.9001C48.9348 74.9001 48.8732 74.8376 48.8732 74.807C48.626 74.5598 48.2246 74.0352 47.9158 73.819C47.8853 73.7885 47.9158 73.9121 47.9158 73.9737C48.0695 74.313 48.163 74.6839 48.3482 74.9927C48.4098 75.0848 48.4403 75.1168 48.5329 75.1783C48.5329 75.2399 48.5955 75.2399 48.5329 75.2399C48.4408 75.2705 48.3482 75.2705 48.2552 75.332C48.163 75.332 48.0695 75.4561 47.9774 75.3635C48.1005 75.1163 48.0079 74.8376 47.9158 74.5908C47.8227 74.313 47.7301 74.0658 47.6686 73.819L47.638 73.7885C47.4834 73.8806 47.545 73.9741 47.4218 74.1278C47.4218 74.1593 47.3903 74.1593 47.3903 74.1593C47.3287 74.0663 47.3903 73.9737 47.3903 73.8806C47.3903 73.7269 47.545 73.5412 47.6385 73.4797C47.8232 73.4482 48.0084 73.4482 48.1635 73.6028C48.4108 73.819 48.627 74.1278 48.8737 74.344H48.9353C48.9353 74.0357 48.9969 73.6338 49.0274 73.3561C49.0899 73.2639 49.1205 73.0477 49.2746 73.0167C49.3677 72.9542 49.4603 72.9236 49.5534 72.9542C49.6149 72.9236 49.7071 72.8621 49.7381 72.831C50.14 72.6764 50.4803 72.5227 50.8502 72.4292L50.9117 72.4907C50.9423 72.5222 50.9423 72.6148 51.0358 72.6764C51.0358 72.5843 51.0974 72.4907 51.1895 72.3986C51.3442 72.244 51.6219 72.1824 51.8382 72.337C52.1159 72.4907 52.703 73.0472 52.9197 73.1088C52.8891 72.8616 52.734 72.6148 52.6419 72.3986C52.6104 72.244 52.4873 72.0593 52.3632 72.0593C52.3016 72.0593 52.3016 71.9967 52.3016 71.9662C52.4932 71.9006 52.6895 71.8492 52.8887 71.8125C52.9192 71.8431 52.8261 71.9662 52.8261 72.0597C52.8887 72.4296 52.9808 72.7074 53.1354 73.0477C53.166 73.2639 53.2586 73.3871 53.3201 73.5417C53.3507 73.6334 53.1345 73.7264 53.0414 73.6334ZM46.8032 74.313C46.7727 74.313 46.587 74.0658 46.3708 74.1274C46.2782 74.1589 46.093 74.2204 46.093 74.313C46.2162 74.6533 46.2782 74.807 46.3708 75.1168C46.4324 75.364 46.6181 75.7034 46.7727 75.7644C46.8033 75.7644 46.8032 75.795 46.8032 75.795C46.6792 75.8881 46.4639 75.8881 46.3398 75.9496C46.2782 75.9802 46.1852 76.0418 46.0926 76.0418C46.031 75.9496 46.1852 75.8881 46.1852 75.7945C46.1852 75.6408 46.1236 75.5167 46 75.1158C45.9384 74.9301 45.8148 74.4362 45.7527 74.4056C45.5676 74.4056 45.3819 74.4362 45.3203 74.6528C45.2587 74.6834 45.2277 74.8065 45.2277 74.9001H45.0736C45.0115 74.6839 45.0115 74.4982 44.8263 74.3436C44.7953 74.313 44.5481 74.2514 44.3939 74.2204C44.2087 74.1589 44.2703 74.4061 44.2087 74.4982C44.1777 74.5903 44.0235 74.7454 44.2087 74.8376C44.3629 74.9001 44.487 74.9306 44.7027 74.9001C44.7337 74.9306 44.7337 74.9922 44.7337 75.0232C44.7027 75.1163 44.7027 75.2394 44.6101 75.2705C44.4865 75.2399 44.4865 75.1168 44.3939 75.0848C44.3013 75.0232 44.2087 74.9927 44.1156 74.9311H44.0231C43.9615 75.1783 43.8068 75.4251 43.8684 75.6108C43.93 75.7029 44.2082 75.7955 44.3008 75.858C44.5481 75.8885 44.7953 75.7955 44.9184 75.6418C44.98 75.6112 45.011 75.5487 45.0731 75.6418V75.7034C44.9805 75.858 44.8874 76.1052 44.7022 76.1358C44.3008 75.9811 43.7138 75.7955 43.2818 75.6108C43.2508 75.5482 43.2818 75.5482 43.2818 75.5482C43.5291 75.5482 43.7138 74.9311 43.7758 74.807C43.8064 74.4987 43.93 74.3436 43.93 74.1274C43.93 74.0352 43.8064 73.9737 43.8064 73.8801C43.961 73.8801 44.1152 73.9732 44.3004 74.0348C44.486 74.0653 44.7018 74.1589 44.8869 74.2204C45.0106 74.251 45.1652 74.3436 45.3809 74.3125C45.8444 74.1589 46.2768 73.9732 46.7097 73.8185C46.8018 73.9732 46.9569 74.251 46.8944 74.3125H46.8032V74.313ZM42.9735 73.6334C42.8193 73.6334 42.7573 73.819 42.7263 73.9121C42.6026 74.0658 42.5721 74.2204 42.5101 74.4061C42.4175 74.6533 42.3249 74.9311 42.0776 75.0232C41.985 75.0848 41.8924 75.0848 41.7994 75.0848C41.5216 75.0848 40.9966 74.9001 40.9345 74.5598C40.8725 74.3125 41.0271 74.0658 41.1197 73.8185C41.1813 73.6023 41.3669 73.3551 41.2744 73.0468C41.2128 73.0468 41.2128 73.0162 41.2128 72.9537C41.2744 72.9232 41.3669 72.9537 41.3669 72.9537C41.5216 73.0468 41.6452 73.1083 41.7994 73.1394C41.8609 73.1394 41.985 73.1394 41.954 73.2635C41.8614 73.294 41.7068 73.3556 41.6142 73.4797C41.46 73.788 41.3669 74.1274 41.2748 74.4371C41.2133 74.5908 41.3054 74.7454 41.46 74.838C41.5526 74.9311 41.7688 74.9311 41.8924 74.9311C42.2012 74.9006 42.3249 74.2514 42.4175 74.0352C42.479 73.819 42.5721 73.6334 42.4175 73.4797C42.4175 73.4482 42.4175 73.3866 42.479 73.3866C42.6026 73.4482 42.8189 73.5412 42.973 73.6028C43.0045 73.6023 43.0045 73.6334 42.9735 73.6334ZM40.9971 72.9537C40.6882 73.1083 40.5957 73.4477 40.5026 73.788C40.41 73.9737 40.3174 74.1589 40.1938 74.3436C40.1938 74.4061 40.1938 74.4366 40.1628 74.4982C40.1012 74.4982 40.0086 74.4982 39.9776 74.4366C39.9776 74.4366 39.9155 74.4061 39.9155 74.3436C39.8369 74.0801 39.7751 73.812 39.7303 73.5408C39.7303 73.3551 39.6683 73.1083 39.6377 72.9227C39.6377 72.8611 39.5757 72.7065 39.5451 72.7065C39.391 72.9537 39.36 73.1389 39.2363 73.3861C39.2058 73.6023 39.1132 73.8801 39.1442 73.9732C39.2058 74.0348 39.2363 74.0653 39.2058 74.1269C39.1442 74.2199 39.1132 74.1269 38.9896 74.0653C38.8664 74.0653 38.7734 74.0348 38.6813 73.9732C38.6813 73.9116 38.7118 73.8801 38.7738 73.8801C38.959 73.788 39.0521 73.4792 39.1137 73.2935C39.2063 73.0463 39.2368 72.9227 39.3609 72.6754C39.3919 72.6139 39.3919 72.5218 39.3609 72.5218C39.2373 72.4903 39.1447 72.5218 39.0521 72.6139C38.9901 72.6139 38.9901 72.6139 38.9901 72.5833C38.9901 72.4903 39.1137 72.4903 39.1447 72.4287C39.2368 72.3366 39.3919 72.275 39.5766 72.3366C39.6692 72.3366 39.7929 72.3981 39.8239 72.5222C40.0091 72.9232 40.0711 73.3556 40.1017 73.788C40.1632 73.8185 40.1017 73.9121 40.1632 73.9737C40.2558 73.7264 40.3489 73.4797 40.4415 73.2635C40.4415 73.1088 40.5651 72.8616 40.4105 72.6764C40.4105 72.6764 40.4415 72.6764 40.4415 72.6148C40.6577 72.7069 40.8739 72.7695 41.0285 72.8621C41.0892 72.9232 41.0276 72.9232 40.9971 72.9537ZM38.4335 73.8801C38.2789 73.8185 38.0317 73.788 37.847 73.7264C37.847 73.6949 37.7544 73.6334 37.7849 73.6334C37.847 73.6028 37.9085 73.6028 37.9085 73.6028C38.0942 73.4797 38.0321 73.2635 38.0321 73.0473C37.8397 73.0089 37.6529 72.9465 37.4761 72.8616C37.3219 73.0162 37.2289 73.2635 37.2599 73.4482C37.2289 73.5412 37.1363 73.4797 37.0742 73.4482C36.9816 73.3866 36.9511 73.3866 36.827 73.3561C36.7964 73.3561 36.7034 73.2945 36.7034 73.2639C36.7339 73.1398 36.796 73.2639 36.9506 73.1398C37.2594 72.8315 37.5682 72.3986 37.846 71.9967C37.9076 71.9662 37.6914 71.9662 37.5988 71.9967C37.5062 71.9967 37.4751 72.0898 37.4136 72.0593V71.9967C37.5988 71.8431 37.846 71.719 38.0932 71.812C38.3405 71.9041 38.371 72.1514 38.371 72.3986V73.6028C38.371 73.6334 38.4331 73.7885 38.5257 73.819C38.5261 73.8801 38.4641 73.8801 38.4335 73.8801ZM38.0317 72.8616C37.908 72.831 37.6923 72.7695 37.5992 72.6759C37.6608 72.4903 37.8465 72.3366 38.0006 72.1509C38.0317 72.2435 38.0317 72.8306 38.0317 72.8616ZM37.1363 71.6569C37.0742 71.6569 36.9816 71.6264 36.9511 71.6569C36.8275 71.749 36.7344 71.9963 36.7039 72.1819C36.5802 72.4903 36.4566 72.7069 36.395 72.9537C36.395 73.0468 36.4876 73.1083 36.4571 73.2009C36.395 73.2635 36.3645 73.2009 36.3024 73.2009C36.2099 73.1394 36.0247 73.1088 35.9321 73.0162C35.87 73.0162 35.8395 72.9537 35.87 72.9537C35.9321 72.9232 36.1788 72.769 36.2099 72.6144C36.3024 72.3366 36.395 72.0588 36.4876 71.7495H36.4571C36.0557 72.0588 35.7469 72.3366 35.4381 72.6759C35.3765 72.769 35.3455 72.7065 35.2834 72.6759C35.2834 72.4903 35.2834 72.3366 35.2529 71.9041C35.2529 71.8426 35.2529 71.3791 35.1913 71.2861C35.0671 71.5092 34.9735 71.7481 34.9131 71.9963C34.8205 72.1819 34.7279 72.4287 34.8515 72.5833C34.8515 72.6139 34.8515 72.6139 34.821 72.6139C34.6353 72.5833 34.4196 72.4898 34.2339 72.4282V72.3977C34.4811 72.3361 34.6353 71.9958 34.7594 71.749C34.852 71.5018 35.0066 71.2856 35.0987 71.0388C35.0682 70.9773 34.9751 70.9467 34.9135 70.8851C34.7594 70.8851 34.7284 70.9773 34.5737 71.0388C34.5432 70.9773 34.5737 70.9467 34.5737 70.9467C34.7284 70.761 34.9135 70.6995 35.0987 70.761C35.2534 70.7916 35.5001 70.8851 35.5001 71.0694C35.5927 71.4097 35.5927 71.8421 35.5927 72.1815V72.243C36.0251 71.9037 36.3029 71.5643 36.7043 71.4097C36.89 71.3791 36.9826 71.4097 37.0747 71.4712C37.1367 71.4712 37.1673 71.5643 37.1673 71.6259C37.1673 71.6569 37.1673 71.6569 37.1363 71.6569Z" fill="#0C0E0F"/>
<path fill-rule="evenodd" clip-rule="evenodd" d="M33.7695 70.1124C33.7695 70.1124 34.3871 69.7731 34.9742 70.0203L45.2588 73.7269L55.2345 70.1129C56.2536 69.7735 56.8397 70.0823 56.8397 70.1129V73.6028C56.5003 73.3866 56.0063 73.2635 55.2345 73.5412L45.2588 77.0622L35.345 73.4482C34.5728 73.1398 34.1714 73.3866 33.7695 73.6028V70.1124ZM33.1829 69.8346C33.1829 69.7425 34.1714 69.2175 35.345 69.649L45.2588 73.1083L55.2345 69.649C56.4072 69.2175 57.4272 69.8346 57.4272 69.8346V74.4371C57.18 74.313 56.2536 73.7269 55.2345 74.0662L45.2588 77.5872L35.345 74.0357C34.3876 73.6954 33.5538 74.3135 33.1829 74.4376V69.8346Z" fill="#0C0E0F"/>
<path fill-rule="evenodd" clip-rule="evenodd" d="M33.8931 70.267C33.8931 70.267 34.4186 69.9892 34.9742 70.1749L45.2588 73.8806L55.2346 70.2675C56.16 69.9897 56.7476 70.1754 56.7476 70.2059V73.3866C56.4073 73.2009 55.9758 73.1088 55.2346 73.3866L45.2588 76.8459L35.345 73.2945C34.6344 73.0472 34.3255 73.2014 33.8931 73.3866V70.267ZM34.0478 70.3591C34.0478 70.3591 34.4802 70.1119 34.9742 70.2976L45.2588 74.0347L55.2346 70.4522C56.0063 70.1744 56.5929 70.2665 56.5929 70.2976V73.1389C56.3151 73.0157 55.8517 73.0157 55.2346 73.2004L45.2588 76.7214L35.345 73.1389C34.6654 72.9226 34.4802 73.0157 34.0478 73.2004V70.3591ZM52.4548 43.8301V45.7454L51.7141 45.282V44.325L52.4548 43.8301Z" fill="#B2A43F"/>
<path fill-rule="evenodd" clip-rule="evenodd" d="M52.2386 44.2315V45.3746L51.7141 45.0343V44.5403L52.2386 44.2315Z" fill="#0C0E0F"/>
<path fill-rule="evenodd" clip-rule="evenodd" d="M52.2081 44.2625V45.313L51.7141 45.0042V44.5403L52.2081 44.2625Z" fill="#FAE935"/>
<path fill-rule="evenodd" clip-rule="evenodd" d="M52.4549 40.186V42.1625L51.7141 41.6685V40.649L52.4549 40.186Z" fill="#B2A43F"/>
<path fill-rule="evenodd" clip-rule="evenodd" d="M52.2386 40.6184V41.6995L51.7141 41.3907V40.8962L52.2386 40.6184Z" fill="#0C0E0F"/>
<path fill-rule="evenodd" clip-rule="evenodd" d="M52.2081 40.649V41.6684L51.7141 41.3286V40.9578L52.2081 40.649Z" fill="#FAE935"/>
<path fill-rule="evenodd" clip-rule="evenodd" d="M39.9155 39.7841V45.6524C41.7994 45.7139 44.2087 45.2825 44.4555 45.313C44.9805 45.313 45.2588 45.6213 45.3203 45.6213C45.3203 45.5598 45.5986 45.313 45.9379 45.313C46.4319 45.2825 48.7482 45.7139 50.7256 45.6524V39.8462H45.9384C45.475 39.8462 45.3208 40.1239 45.3208 40.1239C45.2592 40.1239 45.0736 39.8462 44.6411 39.8462L39.9155 39.7841Z" fill="#E7EEF3" stroke="#0C0E0F" stroke-width="9.15665" stroke-miterlimit="2.613"/>
<path fill-rule="evenodd" clip-rule="evenodd" d="M36.9511 56.1536L37.7849 55.7212L37.3835 56.5546L38.341 56.8629L37.3835 57.2337L37.7849 58.0685L36.9511 57.6666L36.6418 58.5625L36.3025 57.6666L35.376 58.0685L35.87 57.2337L34.9126 56.8629L35.87 56.5546L35.4376 55.7212L36.3025 56.1536L36.6418 55.1952L36.9511 56.1536ZM45.5986 49.6057L46.4639 49.1733L46.031 50.0382L47.0195 50.3775L46.031 50.6863L46.4639 51.5822L45.5986 51.0882L45.3208 52.0762L44.981 51.0882L44.0541 51.5822L44.5481 50.6863L43.5911 50.3775L44.5481 50.0382L44.1161 49.1733L44.981 49.6057L45.3208 48.7099L45.5986 49.6057ZM54.2456 56.1536L55.1109 55.7212L54.6475 56.5546L55.6355 56.8629L54.6475 57.2337L55.1109 58.0685L54.2456 57.6666L53.9062 58.5625L53.5979 57.6666L52.702 58.0685L53.1655 57.2337L52.2081 56.8629L53.1655 56.5546L52.702 55.7212L53.5979 56.1536L53.9062 55.1952L54.2456 56.1536ZM45.5986 64.3067L46.4639 63.8127L46.031 64.7391L47.0195 65.0169L46.031 65.3562L46.4639 66.2215L45.5986 65.7886L45.3208 66.7155L44.981 65.7886L44.0541 66.2215L44.5481 65.3562L43.5911 65.0169L44.5481 64.7391L44.1161 63.8127L44.981 64.3067L45.3208 63.3187L45.5986 64.3067Z" fill="#B2A43F"/>
<path fill-rule="evenodd" clip-rule="evenodd" d="M37.0437 55.8749L38.0317 55.474L37.6613 56.493L38.6808 56.8629L37.6613 57.3263L38.0317 58.3153L37.0437 57.8829L36.6423 58.9019L36.2099 57.8829L35.1909 58.3153L35.5923 57.3263L34.5728 56.8629L35.5923 56.493L35.1909 55.474L36.2099 55.8749L36.6423 54.8559L37.0437 55.8749ZM36.9511 56.1536L37.7539 55.7828L37.3215 56.5856L38.2479 56.8634L37.3215 57.1726L37.7539 57.9754L36.9511 57.6055L36.6423 58.532L36.3025 57.6055L35.4377 58.037L35.9321 57.1726L35.0057 56.8634L35.9321 56.5856L35.4997 55.7828L36.3025 56.1536L36.6423 55.2888L36.9511 56.1536Z" fill="#0C0E0F"/>
<path fill-rule="evenodd" clip-rule="evenodd" d="M45.8148 49.0492L47.1426 48.4937L46.6176 49.853L47.9769 50.378L46.6176 50.903L47.1426 52.2008L45.8148 51.6748L45.2588 53.0341L44.7338 51.6748L43.4059 52.2008L43.962 50.903L42.6031 50.378L43.962 49.853L43.437 48.4937L44.7342 49.0492L45.1667 48.0612H45.4139L45.8148 49.0492ZM45.7528 49.2349L46.8954 48.7409L46.4639 49.884L47.6681 50.378L46.4639 50.8104L46.8954 52.0146L45.7528 51.5512L45.3203 52.6943L44.8264 51.5512L43.6217 52.0146L44.1157 50.8104L43.0041 50.378L44.1157 49.884L43.6217 48.7409L44.8264 49.2349L45.2278 48.2159H45.3819L45.7528 49.2349ZM54.4313 55.5356L55.7596 55.0106L55.2346 56.3379L56.5929 56.8629L55.2346 57.4194L55.7596 58.7468L54.4313 58.2217L53.9063 59.5195L53.3507 58.2217L52.0224 58.7468L52.609 57.4194L51.2506 56.8629L52.609 56.3379L52.0534 55.0106L53.3512 55.5356L53.9067 54.2378L54.4313 55.5356ZM54.3697 55.7212L55.5434 55.2578L55.0494 56.462L56.2536 56.8629L55.0494 57.3579L55.5434 58.5315L54.3697 58.0681L53.9063 59.1792L53.4428 58.0361L52.2076 58.531L52.7326 57.3574L51.5895 56.8624L52.7326 56.3999L52.2386 55.2568L53.4428 55.7203L53.9063 54.5161L54.3697 55.7212ZM45.8148 63.6576L47.1426 63.1326L46.6176 64.4919L47.9769 65.0169L46.6176 65.5419L47.1426 66.9012L45.8148 66.3762L45.2588 67.673L44.7338 66.3762L43.4059 66.9012L43.962 65.5419L42.6031 65.0169L43.962 64.4919L43.437 63.1326L44.7342 63.6576L45.2593 62.3608L45.8148 63.6576ZM45.7528 63.8743L46.8954 63.3803L46.4639 64.5234L47.6681 65.0174L46.4639 65.5113L46.8954 66.6545L45.7528 66.1605L45.3203 67.3341L44.8264 66.1605L43.6217 66.6545L44.1157 65.5113L43.0041 65.0174L44.1157 64.5234L43.6217 63.3803L44.8264 63.8743L45.3203 62.6701L45.7528 63.8743Z" fill="#FAE935"/>
<path fill-rule="evenodd" clip-rule="evenodd" d="M45.6912 49.3585L46.7107 48.9261L46.3398 50.0076L47.3278 50.3775L46.3398 50.7794L46.7107 51.7674L45.6912 51.3965L45.3208 52.4165L44.8884 51.3965L43.8073 51.7674L44.2708 50.7794L43.2518 50.3775L44.2708 50.0076L43.8694 48.9261L44.8884 49.3585L45.3208 48.3705L45.6912 49.3585ZM45.5986 49.6673L46.4319 49.2349L46 50.0997L46.8954 50.3775L46 50.6858L46.4319 51.4896L45.5986 51.0877L45.3203 52.0141L44.9805 51.0877L44.1157 51.5512L44.6101 50.6863L43.6837 50.378L44.6101 50.1002L44.1777 49.2354L44.981 49.6678L45.3208 48.7414L45.5986 49.6673ZM54.3392 55.8749L55.3271 55.474L54.8947 56.493L55.9137 56.8629L54.8947 57.3263L55.3271 58.3153L54.3392 57.8828L53.9067 58.9019L53.5049 57.8828L52.4553 58.3153L52.8877 57.3263L51.8678 56.8629L52.8877 56.493L52.4858 55.474L53.5049 55.8749L53.9067 54.8559L54.3392 55.8749ZM54.2456 56.1536L55.0494 55.7828L54.6169 56.5856L55.5433 56.8634L54.6169 57.1726L55.0494 57.9754L54.2456 57.6055L53.9063 58.532L53.5979 57.6055L52.7331 58.037L53.1655 57.1726L52.3007 56.8634L53.1655 56.5856L52.7947 55.7828L53.5984 56.1536L53.9067 55.2888L54.2456 56.1536ZM45.6912 63.9979L46.7107 63.5654L46.3398 64.5844L47.3278 65.0169L46.3398 65.4187L46.7107 66.4067L45.6912 66.0359L45.3208 67.0549L44.8884 66.0359L43.8073 66.4683L44.2708 65.4187L43.2518 65.0169L44.2708 64.5844L43.8694 63.5654L44.8884 63.9979L45.3208 63.0089L45.6912 63.9979ZM45.5986 64.3067L46.4319 63.9048L46 64.7391L46.8954 65.0169L46 65.2946L46.4319 66.1595L45.5986 65.7271L45.3203 66.6535L44.9805 65.7271L44.1157 66.1595L44.6101 65.2946L43.6837 65.0169L44.6101 64.7391L44.1777 63.9048L44.981 64.3067L45.3208 63.3802L45.5986 64.3067Z" fill="#0C0E0F"/>
<path fill-rule="evenodd" clip-rule="evenodd" d="M33.9862 52.7248H40.4406V48.0302H50.1381V52.7248H56.654V62.3608H50.1381V69.217L45.3203 70.9462L40.4406 69.217V62.3608H33.9862V52.7248ZM34.1714 52.941H40.6568V48.2159H49.9529V52.941H56.4073V62.1756H49.9529V69.0628L45.3203 70.6999L40.6568 69.0628V62.1756H34.1714V52.941Z" fill="#FAE935"/>
<path fill-rule="evenodd" clip-rule="evenodd" d="M38.897 60.6C39.2363 60.1991 38.6808 60.075 38.4646 60.1061C38.5882 59.8283 38.9586 59.581 39.2363 59.7362C39.453 59.5815 39.6688 59.5815 39.7308 59.8593C39.8234 60.1676 40.1012 60.1996 40.3484 60.1996C40.8424 60.1996 41.1207 59.8287 41.0281 59.3958C41.0281 59.2422 41.1207 58.9634 41.2753 58.8093C41.3059 58.7467 40.7498 58.7467 40.6577 58.3153C40.4105 58.469 39.7929 58.5625 39.6387 58.3153C39.6692 58.2847 40.1017 58.1296 40.0091 57.975C39.8239 57.8828 39.7929 57.975 39.6387 57.975C39.6387 57.7893 39.9785 57.6666 39.9165 57.6051C39.8239 57.4504 39.6692 57.6051 39.5461 57.6051C39.6387 57.4504 39.7318 57.3263 39.7318 57.1726C39.6697 56.987 39.4535 56.987 39.2373 57.018C39.2068 56.8323 39.6392 56.6481 39.5461 56.493C39.4845 56.4624 39.3609 56.493 39.2373 56.4624C39.2373 56.4624 39.2993 56.4624 39.2993 56.4009C39.3919 56.3383 39.4845 56.2462 39.4845 56.1536C39.4845 56.0606 39.2993 56.0606 39.2063 56.0606C39.3609 55.7212 39.5767 55.7212 39.8859 55.5355C39.9165 55.4425 39.9165 55.3499 39.8244 55.3499C39.6392 55.3499 39.4845 55.2578 39.3919 55.0416C39.3919 55.011 39.3609 54.9485 39.3919 54.9175C39.4845 54.9175 39.5771 54.9175 39.6697 54.8559C39.7933 54.8253 39.7318 54.7638 39.6697 54.7013C39.5771 54.6707 39.4535 54.7638 39.3609 54.6707C39.2063 54.6707 39.2993 54.486 39.1447 54.486C38.8049 54.4235 38.8049 53.9295 38.9901 53.7438C38.9901 53.7438 39.2989 54.1762 39.3609 53.8985C39.3609 53.6207 39.1137 53.466 38.8669 53.4045C39.1452 53.0961 39.5771 53.2804 39.7318 53.4045C39.8244 53.466 39.8859 53.4045 39.979 53.4045C39.979 53.3739 40.0716 53.3123 40.0096 53.2188C39.917 53.0331 39.8244 53.0331 39.6697 52.9716C39.917 52.7243 40.442 52.8484 40.6582 53.1878C40.7508 53.3119 40.998 53.2799 40.998 53.4961C40.998 53.7123 40.7818 53.4961 40.7818 54.485C40.7818 55.0101 41.1216 55.6272 41.2142 55.5656C41.2758 55.4735 41.3068 55.38 41.3684 55.2573C41.3684 55.2573 41.2758 55.2573 41.2758 55.1948C41.3063 54.917 41.461 54.6698 41.6151 54.423H41.3989C41.3989 54.2373 41.6151 54.0531 41.7693 53.898C41.7693 53.8364 41.5221 53.8364 41.4605 53.7433C41.5221 53.6512 41.7999 53.404 41.7999 53.3734C41.7073 53.2804 41.6457 53.2804 41.6147 53.1878C41.6457 53.0957 41.9545 53.0331 42.0471 52.7859C42.0471 52.7243 41.8929 52.6322 41.8619 52.6322C41.8929 52.6017 42.0471 52.6322 42.2017 52.6322C42.5105 52.6017 42.7267 52.6322 42.7267 52.6322C42.7578 52.6017 42.6652 52.5081 42.6652 52.416C42.9124 52.4465 43.0666 52.416 43.0976 52.1688C43.1592 52.1688 43.1902 52.2609 43.2828 52.2609C43.53 52.354 43.8078 52.5081 44.024 52.7243C44.2713 52.5387 44.6106 52.5387 44.8889 52.5387C45.0125 52.5081 45.0745 52.5387 45.1361 52.5387C44.8889 52.8479 45.4144 52.8479 45.6616 52.6933C45.9088 53.0327 45.9088 53.2799 45.6616 53.5581C45.8158 53.6503 45.9394 53.928 46.0009 53.8975C46.3408 53.4651 47.051 53.3109 46.9589 53.0327C46.8658 52.7243 46.6186 52.7243 46.3718 52.7243C46.4334 52.5387 46.7121 52.5387 47.0515 52.5387C47.0515 52.4155 47.0209 52.2914 47.0515 52.1993C47.5765 52.2914 47.7927 52.879 48.101 52.9405C48.4103 52.9711 48.7496 52.7859 48.9969 52.6012H49.0274C48.9969 53.1878 49.6145 52.7243 49.8001 52.8484C49.8307 53.3734 48.9353 53.4961 48.8427 53.7433C48.7496 53.9906 48.9348 54.0526 48.9964 54.1452C48.9348 54.1758 48.5955 54.1758 48.6265 54.3309C48.7802 54.5165 49.1821 54.423 49.2131 54.3003C49.3677 53.991 49.121 53.8985 49.121 53.8369C49.1825 53.8063 49.3066 53.8985 49.4293 53.8063C49.4598 53.7133 49.3677 53.6517 49.3677 53.6207C49.5534 53.6512 49.7376 53.8063 50.0779 53.7128C50.2011 53.6512 50.0779 53.5591 50.1395 53.4656C50.3252 53.4961 50.5104 53.7128 50.6645 53.8059C50.8192 53.7433 50.7576 53.5586 50.727 53.3119C50.9117 53.2804 51.0969 53.8369 51.3442 53.8985C51.4363 53.929 51.5298 53.8063 51.5298 53.7128C51.5914 53.7128 51.5914 53.7433 51.5914 53.8059C51.9317 55.0101 52.3016 53.8364 52.4873 54.0531C52.5488 54.0531 52.4873 54.0836 52.4873 54.0836C52.3952 54.1758 52.3632 54.392 52.3952 54.5161C52.6104 55.2573 51.8386 55.4415 51.8692 55.4415C51.9317 57.0786 50.2321 57.1101 49.3682 56.9245C49.6154 57.4495 50.2326 57.511 50.2946 57.974C50.3252 58.1287 50.3867 58.5611 50.5108 58.7152C50.7581 58.8699 51.1895 58.6231 51.4057 58.468C51.7766 58.5305 51.7766 58.7458 51.8382 58.8083C52.209 58.8699 52.4868 58.6226 52.8262 58.5305C52.9192 58.6226 52.6414 58.962 52.7956 58.9004C52.8261 58.9004 52.8261 58.8699 52.8887 58.9004C52.9192 59.0861 52.7956 59.2713 52.8262 59.3944C52.8887 59.425 52.9192 59.425 53.0424 59.4875C52.9808 59.5796 52.8887 59.518 52.7951 59.7347C52.8257 59.7653 53.0424 59.7653 53.1354 59.7653C53.0424 59.95 52.703 60.1662 52.6414 60.2593C52.703 60.2898 52.8261 60.2898 52.8887 60.2898C52.8887 60.4444 52.6099 60.4755 52.5484 60.5981C52.6099 60.6287 52.6414 60.6287 52.703 60.6912C52.6099 60.8143 52.209 60.969 52.3011 61.0306C52.3627 61.0611 52.4558 61.1236 52.5484 61.1547C52.24 61.4019 52.0544 61.463 51.715 61.463C51.715 61.5861 51.715 61.6792 51.5909 61.8023C51.5294 61.8954 51.3437 61.988 51.1891 61.988C51.2821 61.6797 51.1891 61.4014 50.9418 61.4014C50.9418 61.463 50.9113 61.463 50.9113 61.4935C51.0043 61.8019 50.8497 62.1116 50.4173 62.0801C50.2316 62.3283 49.6455 62.3283 49.3677 61.988V61.8959C49.615 61.8959 49.7376 61.8959 49.9543 61.8028C49.9543 61.6797 49.9543 61.6491 49.8927 61.5866C49.6455 61.5561 49.3677 61.6797 49.121 61.8028C49.0904 61.4635 49.3066 61.031 49.615 61.031C49.7071 60.7227 49.7381 60.8148 49.7381 60.7227C49.615 60.6296 49.3682 60.5986 49.1825 60.5986C49.121 60.5986 49.0904 60.6292 49.0279 60.5986C49.2751 60.1046 49.646 60.0736 49.9543 60.1977C50.0474 60.1046 50.2015 60.012 50.2946 60.0736C50.4803 60.0736 50.5108 60.3819 50.634 60.4755C50.8196 60.537 51.0358 60.2593 51.0358 60.0736C51.0358 59.6717 50.3872 59.6101 50.0479 59.6717C49.7386 59.7342 49.4608 59.6717 49.183 59.487C48.9973 59.3324 48.7811 59.1777 48.5964 58.993C48.5339 58.9615 48.5339 58.993 48.5339 59.0546C48.5034 59.1777 48.4108 59.3939 48.5339 59.5796C48.6885 59.6717 48.9974 59.7653 49.0279 60.012C48.9974 60.1041 48.9974 60.2593 48.8742 60.3514C48.7501 60.4444 48.5339 60.537 48.5339 60.7222C48.5034 60.9695 48.5339 61.0306 48.7501 61.2778C48.5339 61.3709 48.2561 61.2778 48.1015 61.2162C48.0709 61.2162 47.9168 61.494 47.8862 61.5861C47.7316 61.6486 47.639 61.2778 47.5769 61.3083C47.5464 61.3709 47.3913 61.5556 47.3913 61.6486C47.2992 61.6792 47.2066 61.3083 47.144 61.2778C47.0519 61.3709 46.9593 61.494 46.9593 61.6486C46.8663 61.5861 46.8047 61.494 46.7121 61.4014C46.588 61.5551 46.3718 61.6486 46.1866 61.5861C46.125 61.5556 46.2792 61.4014 46.2172 61.3709C46.2172 61.3083 46.1866 61.3709 46.1866 61.3709C46.094 61.494 45.5074 61.494 45.5074 61.3709C45.6621 61.2778 45.8162 61.1236 45.7547 60.969C45.7547 60.8769 45.6931 60.9065 45.6621 60.9065C45.4764 61.0306 45.3838 61.2773 45.1676 61.4014C44.9824 61.4935 44.8282 61.463 44.7352 61.3083C44.4569 61.2778 44.2102 61.2778 43.9629 61.494C43.9629 61.4635 43.9319 61.4635 43.9319 61.4635C44.0245 60.9695 44.1791 60.8769 44.4569 60.7838C44.4569 60.6917 44.4569 60.5981 44.3643 60.4755C44.2102 60.3824 43.9629 60.4449 43.8083 60.537C43.7157 60.4449 44.0245 59.7653 44.4569 60.012C44.4879 60.012 44.4879 59.9495 44.5495 59.919C44.4569 59.6106 44.2717 59.6106 44.0555 59.7342C44.025 59.3324 44.4879 59.0546 44.7967 59.2403C44.8278 59.1777 44.9204 59.1777 44.9819 59.1472C45.2292 59.1472 45.2602 59.3944 45.4144 59.4875C45.5069 59.518 45.7537 59.5796 45.8468 59.7347C46.0009 59.95 46.1246 59.95 46.4334 60.0125C46.619 60.0125 46.8042 60.0125 46.9593 59.95C47.2987 59.8579 47.2987 59.425 47.0515 59.425C46.7121 59.3944 46.4334 59.4875 46.125 59.3944C45.6621 59.2713 45.5074 59.1472 45.5074 58.6226C45.1676 58.7458 44.2722 59.0551 44.0555 59.0861C43.9629 59.2407 43.8083 59.2718 43.6231 59.3333C43.5305 59.3949 43.8083 59.6727 43.8083 59.6727C43.8083 59.7657 43.0981 60.1051 43.1601 60.1051C43.1907 60.1667 43.2527 60.1667 43.2837 60.1982C43.2837 60.2903 43.0055 60.2903 42.9749 60.3519C43.006 60.3824 43.0675 60.4449 43.0986 60.4449C42.9749 60.5986 42.7277 60.537 42.5735 60.6922C42.4809 60.7227 42.3263 60.7843 42.2027 60.8153C42.0791 60.8778 42.2337 60.9699 42.2027 61.0315C41.3999 61.2172 41.2763 60.8778 41.0906 60.9074C40.998 60.9074 40.8744 61.0315 40.7818 61.1246C40.8434 61.4024 40.5966 61.8964 40.2568 61.8964C40.1642 61.8033 40.3494 61.6801 40.2568 61.4945C40.2568 61.4639 40.1952 61.4639 40.1642 61.4639C40.01 61.4639 40.0721 61.9274 39.7323 61.8338C39.6702 61.8338 39.6397 61.7417 39.5776 61.8033C39.2072 61.989 38.991 62.0811 38.5896 61.7417C39.2998 61.5561 39.3929 60.8774 38.3734 61.1246C38.4336 60.7241 38.6803 60.6 38.897 60.6ZM45.8458 55.1952C45.8458 55.1337 45.8458 55.1337 45.9074 55.1337C46.1236 55.6892 46.7107 55.7207 47.2357 55.6277C48.2237 55.474 49.4589 54.9175 50.2932 54.9175C50.571 54.9175 51.2506 55.0416 51.2506 55.474C51.2506 55.7823 51.1576 55.968 50.9413 56.1217C50.6636 56.3073 49.9534 56.4004 49.6446 56.4004C49.4589 56.4004 48.7487 56.3379 48.5325 56.0601C48.4093 55.968 48.2241 55.9054 48.0075 55.9054C47.3278 55.9054 46.5866 56.3073 46 56.3073C45.8458 56.3073 45.8148 55.4425 45.8458 55.1952ZM47.3278 53.991C47.575 54.1767 47.7912 54.517 48.1621 54.7013C48.1621 54.7638 47.4209 55.0105 47.1421 55.0105C46.6171 55.0105 46.4634 54.7633 46.4634 54.5165C46.4639 54.2378 46.9579 53.8063 47.3278 53.991Z" fill="#B2A43F"/>
<path fill-rule="evenodd" clip-rule="evenodd" d="M49.8297 60.2917C49.7954 60.3728 49.7643 60.4553 49.7367 60.5389C49.6135 60.4468 49.5205 60.4468 49.2732 60.4774C49.3052 60.3533 49.6446 60.106 49.8297 60.2917ZM49.6135 61.1566C49.5917 61.1957 49.5829 61.2407 49.5884 61.2852C49.5939 61.3296 49.6134 61.3712 49.6441 61.4038C49.7057 61.4959 49.4279 61.4654 49.2732 61.5575C49.2732 61.4654 49.4283 61.1566 49.6135 61.1566ZM49.9839 61.8978C50.0464 61.9283 50.077 61.9899 50.1386 62.0209C50.077 62.114 49.6446 62.1756 49.6135 61.9904C49.7367 61.9899 49.8913 61.9899 49.9839 61.8978ZM44.487 60.9714C44.487 61.0329 44.487 61.0635 44.5486 61.157H44.487C44.2708 61.157 44.2087 61.2186 44.0546 61.2802C44.0541 61.126 44.3629 60.8788 44.487 60.9714ZM44.3939 60.106C44.4555 60.1676 44.3939 60.106 44.3939 60.3533H44.3013C44.1777 60.2917 44.0541 60.2917 43.962 60.3533C44.0235 60.1676 44.2703 60.106 44.3939 60.106ZM44.7027 59.3958C44.6412 59.4889 44.6101 59.5815 44.6101 59.6121C44.6101 59.6736 44.5481 59.6121 44.5481 59.6121C44.4555 59.5815 44.3629 59.5199 44.2703 59.5199C44.3629 59.3958 44.6101 59.2727 44.7027 59.3958ZM43.0971 55.0415C43.0971 55.011 43.1587 55.0415 43.1587 55.0415C43.0971 55.2578 43.0661 55.4425 43.0661 55.5666C43.0661 55.6281 43.0971 55.6281 43.0971 55.6281C43.1897 55.4744 43.3444 54.9485 43.4059 55.1031C43.5296 55.4425 43.0971 55.968 43.0045 55.9059C42.9735 55.9054 42.8499 55.3499 43.0971 55.0415ZM40.4406 53.1882H40.4095C40.3174 53.1882 40.2554 53.2804 40.1623 53.1882C40.1007 53.0961 40.0702 53.0336 40.0081 52.972C40.1628 52.941 40.3174 53.0336 40.4406 53.1882ZM39.2053 53.3739C39.36 53.3123 39.5757 53.3739 39.6377 53.466C39.6377 53.4966 39.5452 53.6517 39.4831 53.6207C39.36 53.3739 39.1127 53.4045 39.2053 53.3739ZM39.0512 53.991C39.0512 53.991 39.1127 54.0841 39.2364 54.1767C39.2984 54.2383 39.2364 54.3313 39.2364 54.3929C39.1127 54.3924 38.9586 54.0531 39.0512 53.991ZM39.1438 59.8283C39.2053 59.8588 39.1127 59.9514 39.0512 60.0139C39.0512 60.0755 38.897 59.9514 38.7113 59.9514C38.8039 59.8283 38.9891 59.8283 39.1438 59.8283ZM39.2364 61.4959C39.2984 61.4654 39.391 61.6816 39.36 61.6816C39.2364 61.8353 38.9586 61.8047 38.866 61.7431C38.9891 61.6816 39.1127 61.5885 39.2364 61.4959ZM38.9586 60.7241V60.9088C38.8044 60.8792 38.7734 60.8792 38.5882 60.9088C38.6187 60.7241 38.897 60.6936 38.9586 60.7241Z" fill="#00AAE8"/>
<path fill-rule="evenodd" clip-rule="evenodd" d="M45.5986 43.3981H45.6607V45.4362H45.5986V43.3981Z" fill="#0C0E0F"/>
<path fill-rule="evenodd" clip-rule="evenodd" d="M39.5452 46.0543V39.8462H39.885V45.7135C41.6452 45.745 44.0236 45.3741 44.3013 45.3741C44.8879 45.3126 45.2588 45.6519 45.3208 45.745C45.3824 45.6519 45.6606 45.3126 46 45.3741C47.4825 45.4662 49.0265 45.745 50.7566 45.745V39.8457H51.1576V46.0533H39.5452V46.0543Z" fill="#B2A43F"/>
<path fill-rule="evenodd" clip-rule="evenodd" d="M45.5986 39.7841H45.6607V42.0083H45.5986V39.7841ZM50.2001 43.3981C50.0464 43.3671 49.8302 43.3981 49.6446 43.3671C49.7061 43.2435 49.7367 43.1509 49.7061 43.0583C49.7061 43.0273 49.6446 42.9037 49.614 42.8111C49.4594 42.8111 49.3057 42.7801 49.1816 42.8111C49.12 42.8111 49.12 42.9037 49.12 42.9652C49.0895 43.1199 49.12 43.2125 49.2121 43.3666L49.1816 43.3977H48.6876C48.4409 43.3977 48.1626 43.3977 48.1626 43.3666C48.3163 43.212 48.3163 43.0268 48.3163 42.6875C48.3163 42.4402 48.3478 42.162 48.2242 42.1009C48.2242 42.0698 48.1626 42.0698 48.1626 42.0698C48.1626 42.0083 48.2242 42.0083 48.2547 42.0083H48.6871L48.7487 42.0698C48.7487 42.1009 48.6256 42.1009 48.6256 42.1624C48.5325 42.255 48.5325 42.4407 48.5325 42.6259C48.5325 42.9041 48.5325 43.2125 48.6871 43.3671H48.7487C48.9959 43.1509 49.1196 42.5333 49.2737 42.255C49.2121 42.1624 49.089 42.1935 49.089 42.1935C48.9959 42.1935 48.9344 42.255 48.8728 42.255C48.8728 42.1935 48.9959 42.1624 49.0265 42.1009C49.089 42.0698 49.1196 42.0698 49.2121 42.0083C49.3668 42.0083 49.5205 42.0083 49.614 42.1624C49.7061 42.255 49.7372 42.4407 49.8302 42.5949C49.9534 42.8731 50.0464 43.1509 50.2937 43.3671C50.2932 43.3981 50.2307 43.3981 50.2001 43.3981ZM49.2117 42.6875C49.2732 42.5328 49.3047 42.4402 49.3663 42.2856C49.4279 42.2856 49.552 42.6254 49.552 42.6875H49.2117ZM48.069 42.4407C48.0075 42.4407 47.9769 42.3787 47.9769 42.3481C47.8848 42.2555 47.8848 42.1624 47.7297 42.1009H47.5751C47.5751 42.5023 47.4829 43.1509 47.7297 43.3671C47.7297 43.4597 47.6376 43.3981 47.5751 43.3981H47.1426C47.1121 43.3671 47.1426 43.3055 47.2052 43.2435C47.3899 42.9657 47.3283 42.5333 47.3283 42.1624C47.2977 42.1009 47.2362 42.1009 47.2052 42.1009C47.0505 42.1624 46.9579 42.2861 46.8959 42.4407C46.8959 42.5023 46.8653 42.5023 46.8653 42.4407V42.0083H48.07V42.2555C48.069 42.2861 48.069 42.3787 48.069 42.4407Z" fill="#0C0E0F"/>
<path fill-rule="evenodd" clip-rule="evenodd" d="M46.6792 42.1009C46.6176 42.1009 46.6176 42.1624 46.6176 42.1935C46.4639 42.5023 46.5255 42.8111 46.5255 43.1509V43.3671C46.5255 43.3981 46.4639 43.3671 46.4324 43.3671C46.1241 43.0583 45.9384 42.6879 45.6606 42.3481C45.5991 42.3481 45.5991 42.3787 45.5991 42.3787C45.5991 42.6259 45.6606 42.9037 45.6606 43.1509C45.6912 43.2435 45.8148 43.3055 45.8148 43.3671C45.6912 43.3981 45.506 43.3671 45.4134 43.3671H45.3208C45.5991 43.1509 45.506 42.5333 45.506 42.255C45.475 42.1935 45.4134 42.1935 45.3824 42.1935C45.2592 42.255 45.1662 42.3787 45.1662 42.5023H45.1351C45.0115 42.4407 45.0115 42.2861 44.981 42.255C44.9194 42.1935 44.8884 42.1624 44.8268 42.1624H44.3944V42.5333C44.456 42.5949 44.6106 42.5949 44.6416 42.5333C44.7032 42.5023 44.7342 42.4407 44.8273 42.4407V42.8111C44.7963 42.8726 44.7963 42.7801 44.7347 42.7801C44.7037 42.7185 44.6111 42.6875 44.4875 42.6254C44.4875 42.6875 44.3949 42.6254 44.3949 42.6875V43.1504C44.4564 43.3051 44.7347 43.243 44.7963 43.243C44.8889 43.243 44.9815 43.2125 45.0125 43.1199C45.0745 43.0583 45.0745 42.9652 45.1671 42.9037V42.8731V43.2435C45.1671 43.3055 45.1361 43.3671 45.0745 43.3671H44.0245C44.2717 43.2125 44.1787 42.3481 44.1171 42.1935C44.0555 42.1624 44.0245 42.1009 43.9629 42.0698C43.9629 42.0083 44.0245 42.0083 44.0555 42.0083C44.3643 42.0699 44.7352 42.0699 45.013 42.0083C45.075 42.0699 45.1366 42.0699 45.1366 42.1009C45.1676 42.1624 45.1676 42.1935 45.1676 42.1935C45.2292 42.1935 45.2602 42.1009 45.3222 42.1009C45.4148 42.0083 45.5074 42.0083 45.6005 42.0698C46.0019 42.1624 46.1871 42.7185 46.3723 42.9037H46.4338C46.4338 42.7185 46.4338 42.5333 46.3723 42.2861C46.3723 42.1935 46.2797 42.1009 46.1871 42.0698C46.1871 42.0083 46.2176 42.0083 46.2176 42.0083H46.7126C46.7126 42.0083 46.7742 42.0083 46.7126 42.0698C46.7107 42.0698 46.7107 42.0699 46.6792 42.1009ZM43.7143 42.1009C43.6217 42.255 43.6217 42.5023 43.6217 42.6875C43.6217 42.9037 43.5911 43.1504 43.7763 43.3051V43.3666C43.6217 43.3666 43.4059 43.3666 43.2823 43.3977C43.2513 43.3666 43.2513 43.3666 43.2513 43.3051C43.2823 43.243 43.4059 43.2125 43.4059 43.1504C43.4365 43.0268 43.4365 42.4402 43.4365 42.3476C43.4059 42.255 43.4059 42.162 43.2823 42.1004C43.2823 42.1004 43.2513 42.1004 43.2513 42.0694C43.2513 42.0694 43.2513 42.0078 43.2823 42.0078C43.4365 42.0694 43.6217 42.0078 43.8073 42.0078C43.8689 42.0699 43.7763 42.1009 43.7143 42.1009ZM42.7263 43.3671C42.5101 43.3981 42.1397 43.3671 41.954 43.2125C41.7688 43.0273 41.6452 42.7185 41.7688 42.5023C41.7688 42.2861 41.954 42.1009 42.0776 42.0698C42.2939 42.0083 42.5101 41.9462 42.6642 42.0083C42.7258 42.0699 42.8189 42.0698 42.8494 42.0698C42.911 42.0698 42.973 42.0083 43.0041 42.0083L43.0656 42.0698C43.0656 42.1935 43.0041 42.2861 43.0041 42.4407C43.0041 42.5023 43.0656 42.5333 43.0041 42.5333C42.9115 42.5333 42.9115 42.4407 42.9115 42.3787C42.7573 42.1935 42.7263 42.1009 42.479 42.1009C42.3249 42.0699 42.1392 42.1624 42.0776 42.2861C41.954 42.5333 41.9851 42.8731 42.1392 43.0583C42.2934 43.2125 42.4175 43.2435 42.6027 43.2125C42.7263 43.1509 42.8499 43.0583 42.9115 42.9037H43.0041C43.0041 42.9037 43.0656 42.9652 43.0656 43.0273C43.0661 43.1509 42.8499 43.243 42.7263 43.3671ZM41.6142 42.5023C41.5216 42.3481 41.46 42.1624 41.2748 42.1009C41.2133 42.0699 41.1202 42.1009 41.0892 42.1624C41.0276 42.255 41.0276 42.3787 41.0892 42.4407C41.2748 42.5949 41.7068 42.7185 41.6452 43.0583C41.6142 43.2125 41.5216 43.3671 41.367 43.3981C41.1197 43.4597 40.9345 43.3671 40.7494 43.2125H40.6878C40.6549 43.3131 40.5896 43.4001 40.5021 43.4597H40.4406C40.5021 43.2125 40.5642 43.0273 40.6568 42.8731C40.6568 42.8731 40.6568 42.9037 40.6878 42.9037C40.7494 43.1199 40.935 43.243 41.0892 43.243C41.2748 43.3051 41.398 43.1199 41.2748 42.9037C41.1823 42.7801 40.935 42.7185 40.7804 42.5023C40.7494 42.3787 40.7494 42.255 40.8419 42.1624C40.9966 41.9152 41.2744 41.9462 41.4596 42.0698C41.5522 42.0698 41.6137 42.0083 41.6447 42.0083C41.6452 42.0699 41.6452 42.4407 41.6142 42.5023Z" fill="#0C0E0F"/>
<path fill-rule="evenodd" clip-rule="evenodd" d="M38.9891 46.5788V39.8462H39.4526V46.1464H51.2506V39.8462H51.6821V46.5788H38.9891Z" fill="#D06332"/>
<path fill-rule="evenodd" clip-rule="evenodd" d="M38.897 44.0778V45.4667L37.6923 44.787L38.897 44.0778ZM38.897 40.4638V41.8536L37.6923 41.1434L38.897 40.4638Z" fill="#B2A43F"/>
<path fill-rule="evenodd" clip-rule="evenodd" d="M38.5262 44.5093C38.6808 44.5093 38.7734 44.6639 38.7734 44.7871C38.7734 44.9417 38.6808 45.0343 38.5262 45.0343C38.3715 45.0343 38.2479 44.9422 38.2479 44.7871C38.2479 44.6644 38.3715 44.5093 38.5262 44.5093Z" fill="#0C0E0F"/>
<path fill-rule="evenodd" clip-rule="evenodd" d="M38.5262 44.5403C38.6808 44.5403 38.7734 44.6644 38.7734 44.7875C38.7734 44.9422 38.6808 45.0348 38.5262 45.0348C38.3715 45.0348 38.2789 44.9426 38.2789 44.7875C38.2789 44.6644 38.3715 44.5403 38.5262 44.5403Z" fill="#FAE935"/>
<path fill-rule="evenodd" clip-rule="evenodd" d="M38.5262 40.8962C38.6808 40.8962 38.7734 40.9888 38.7734 41.1434C38.7734 41.2981 38.6808 41.4217 38.5262 41.4217C38.3715 41.4217 38.2479 41.2981 38.2479 41.1434C38.2479 40.9888 38.3715 40.8962 38.5262 40.8962Z" fill="#0C0E0F"/>
<path fill-rule="evenodd" clip-rule="evenodd" d="M38.5262 40.8962C38.6808 40.8962 38.7734 41.0508 38.7734 41.1434C38.7734 41.2981 38.6808 41.3907 38.5262 41.3907C38.3715 41.3907 38.2789 41.2981 38.2789 41.1434C38.2789 41.0508 38.3715 40.8962 38.5262 40.8962Z" fill="#FAE935"/>
<path fill-rule="evenodd" clip-rule="evenodd" d="M45.7527 52.8489C45.7527 52.7864 45.6912 52.7248 45.6601 52.6943C45.4129 52.8489 44.8879 52.8489 45.1347 52.5396C45.0731 52.5396 45.011 52.5091 44.8874 52.5396C44.6096 52.5396 44.2698 52.5396 44.0226 52.7253C43.8064 52.5091 43.5286 52.3554 43.2813 52.2619C43.1887 52.2619 43.1577 52.1697 43.0962 52.1697C43.0651 52.417 42.9105 52.4475 42.6637 52.417C42.6637 52.5091 42.7563 52.6026 42.7253 52.6332C42.7253 52.6332 42.5091 52.6026 42.2003 52.6332C42.0456 52.6332 41.8915 52.6026 41.8605 52.6332C41.8915 52.6332 42.0456 52.7253 42.0456 52.7869C41.9531 53.0341 41.6442 53.0962 41.6132 53.1887C41.6442 53.2809 41.7058 53.2809 41.7984 53.3744C41.7984 53.405 41.5206 53.6522 41.4591 53.7443C41.5206 53.8374 41.7679 53.8374 41.7679 53.8989C41.6132 54.0536 41.3975 54.2383 41.3975 54.424H41.6137C41.4595 54.6712 41.3049 54.918 41.2743 55.1957C41.2743 55.2583 41.3669 55.2583 41.3669 55.2583C41.3054 55.3814 41.2744 55.4745 41.2128 55.5666C41.1202 55.6282 40.7804 55.011 40.7804 54.486C40.7804 53.4971 40.9966 53.7133 40.9966 53.4971C40.9966 53.2809 40.7493 53.3124 40.6567 53.1887C40.4405 52.8494 39.9155 52.7253 39.6683 52.9725C39.8229 53.0341 39.9155 53.0341 40.0081 53.2198C40.0702 53.3128 39.9776 53.3744 39.9776 53.4054C39.885 53.4054 39.8229 53.467 39.7303 53.4054C39.5757 53.2813 39.1437 53.0971 38.8655 53.4054C39.1127 53.467 39.3595 53.6216 39.3595 53.8994C39.2979 54.1772 38.9886 53.7448 38.9886 53.7448C38.8034 53.9304 38.8034 54.4244 39.1433 54.487C39.2974 54.487 39.2048 54.6717 39.3595 54.6717C39.4521 54.7647 39.5757 54.6717 39.6683 54.7022C39.7303 54.7648 39.7919 54.8263 39.6683 54.8569C39.5757 54.9184 39.4831 54.9184 39.3905 54.9184C39.3595 54.949 39.3905 55.0115 39.3905 55.0425C39.4831 55.2587 39.6377 55.3509 39.8229 55.3509C39.9155 55.3509 39.9155 55.443 39.8845 55.5365C39.5757 55.7222 39.3595 55.7222 39.2048 56.0615C39.2974 56.0615 39.4831 56.0615 39.4831 56.1546C39.4831 56.2467 39.3905 56.3393 39.2979 56.4018C39.2979 56.4634 39.2359 56.4634 39.2359 56.4634C39.3595 56.494 39.4831 56.4634 39.5447 56.494C39.6373 56.6486 39.2048 56.8333 39.2359 57.019C39.4525 56.9884 39.6683 56.9884 39.7303 57.1736C39.7303 57.3273 39.6377 57.4514 39.5447 57.606C39.6683 57.606 39.8229 57.4514 39.915 57.606C39.9771 57.6676 39.6373 57.7908 39.6373 57.9759C39.7914 57.9759 39.8224 57.8838 40.0076 57.9759C40.1002 58.1306 39.6678 58.2852 39.6373 58.3162C39.7914 58.5635 40.409 58.4699 40.6563 58.3162C40.7489 58.7477 41.3049 58.7477 41.2739 58.8102C41.1192 58.9639 41.0266 59.2427 41.0266 59.3968C41.1192 59.8292 40.841 60.2006 40.347 60.2006C40.0997 60.2006 39.822 60.1691 39.7294 59.8603C39.6673 59.5825 39.4511 59.5825 39.2349 59.7371C38.9571 59.5825 38.5867 59.8292 38.4631 60.107C38.6793 60.0765 39.2349 60.2001 38.8955 60.601C38.6793 60.601 38.4321 60.7251 38.3701 61.127C39.3895 60.8798 39.2965 61.5585 38.5863 61.7441C38.9877 62.0835 39.2039 61.9914 39.5743 61.8057C39.6363 61.7441 39.6668 61.8362 39.7289 61.8362C40.0687 61.9293 40.0067 61.4663 40.1608 61.4663C40.1919 61.4663 40.2534 61.4663 40.2534 61.4969C40.346 61.6826 40.1608 61.8052 40.2534 61.8988C40.5933 61.8988 40.84 61.4048 40.7785 61.127C40.871 61.0339 40.9947 60.9098 41.0873 60.9098C41.2729 60.8802 41.3961 61.2191 42.1993 61.0339C42.2304 60.9724 42.0757 60.8802 42.1993 60.8177C42.323 60.7872 42.4776 60.7256 42.5702 60.6946C42.7244 60.5399 42.9716 60.6015 43.0952 60.4473C43.0642 60.4473 43.0026 60.3848 42.9716 60.3543C43.0026 60.2927 43.2804 60.2927 43.2804 60.2006C43.2494 60.1691 43.1878 60.1691 43.1568 60.1075C43.0952 60.1075 43.8049 59.7682 43.8049 59.6751C43.8049 59.6751 43.5271 59.3973 43.6197 59.3357C43.8049 59.2742 43.9596 59.2436 44.0522 59.0885C44.2684 59.0579 45.1642 58.7482 45.5041 58.625C45.5041 58.9644 45.5656 59.1501 45.6893 59.2431L45.7508 58.1926C45.6582 58.2232 45.5656 58.2857 45.4115 58.3167H45.3805C45.473 58.1926 45.6587 58.038 45.7513 57.8533C45.3805 58.038 45.1337 58.2857 44.6087 58.5329C44.4851 58.5329 44.4851 58.5635 44.4851 58.5329C44.5466 58.3167 44.6392 58.2857 44.7323 57.9764C44.7013 57.9764 44.6397 58.038 44.6087 58.038C44.0526 58.4399 43.7749 58.8107 43.2809 58.6561C43.3424 58.7482 43.4971 58.9644 43.7749 59.058C43.6202 59.1811 43.1572 59.1501 42.91 58.9964C42.91 59.2436 43.2809 59.3973 43.4045 59.4278C43.1573 59.5825 42.6633 59.4278 42.416 59.3357V59.3973C42.6012 59.6751 43.1572 59.7376 43.435 59.7376C43.0026 59.9529 42.6012 60.0154 42.1998 59.7681C42.1382 59.9218 42.5707 60.2006 42.7248 60.2621C42.7248 60.3543 42.1382 60.2927 41.86 60.0149C41.7674 60.1686 42.1998 60.4473 42.2924 60.4784C42.0452 60.6946 41.397 60.3853 41.5206 60.4478C41.4591 60.4478 41.4591 60.3853 41.4591 60.4478C41.5206 60.6325 41.7063 60.7256 41.8915 60.7872C41.5517 61.0344 41.2739 60.7256 41.1192 60.6325C41.0266 60.602 40.6868 60.9728 40.6558 60.9728V61.3122C40.5942 61.4052 40.5011 61.6525 40.4086 61.6525C40.347 61.59 40.4396 61.3747 40.3164 61.2816C39.9146 61.1279 39.9766 61.5594 39.7909 61.6525C39.5747 61.8062 39.2969 61.4053 39.2969 61.3747C39.2969 61.3122 39.3585 61.1585 39.4821 61.2816C39.6368 61.2816 39.6368 61.1585 39.6368 61.1585C39.6368 61.0344 39.5747 60.9103 39.3895 60.9103C39.3585 60.9728 39.3585 61.1275 39.2349 61.0649C39.0497 60.9103 39.0497 60.5399 39.1428 60.5399C39.2969 60.4784 39.2969 60.6946 39.4821 60.632C39.5747 60.5399 39.5747 60.2927 39.4821 60.2621C39.3585 60.2006 39.2349 60.3543 39.1428 60.2621C39.2044 60.0149 39.359 59.8297 39.4516 59.8297C39.6368 59.8297 39.5747 60.1075 39.822 60.2621C40.1613 60.4478 40.5942 60.4478 40.7794 60.3543C41.6442 59.9524 41.2739 59.3353 41.6132 59.1806C42.1998 58.9028 41.9531 58.625 42.1382 58.4704C42.1998 58.5329 42.1998 58.8107 42.3855 58.8107C42.4165 58.5635 42.4781 58.3167 42.7253 58.4399C42.8179 58.564 42.9725 58.7176 43.0962 58.8107V58.3167C43.3434 58.564 43.7133 58.5329 43.7133 58.4399C43.6207 58.3783 43.4355 58.1315 43.4971 58.07C43.6823 58.1931 44.0531 58.07 44.0221 57.9769C43.9605 57.9463 43.9295 57.8848 43.9295 57.8538C43.9605 57.7607 44.2078 57.7607 44.2693 57.7607C44.2693 57.607 44.0531 57.3283 44.2999 57.081C44.3925 57.1741 44.4545 57.2667 44.6397 57.3283L44.7013 57.2667C44.6397 57.113 44.6087 56.9273 44.7013 56.8343C45.1337 56.8343 45.412 56.8343 45.7513 56.7421V54.8583C45.6897 54.8583 45.5971 54.8278 45.5661 54.6111C45.5045 54.4254 45.3189 54.3027 45.0721 54.2402C45.1647 54.1481 45.1337 53.993 45.1337 53.9319C45.2573 53.9013 45.412 53.9013 45.5045 53.9319C45.6592 54.0865 45.5661 54.3338 45.7518 54.7037V53.6517C45.7518 53.6212 45.6902 53.6212 45.6592 53.5596C45.6897 53.4971 45.7518 53.4665 45.7518 53.405V52.8489H45.7527ZM45.7527 59.6121C45.6601 59.5815 45.5055 59.52 45.4134 59.4889C45.2587 59.3959 45.2277 59.1486 44.981 59.1486C44.9194 59.1792 44.8268 59.1792 44.7958 59.2417C44.487 59.056 44.0235 59.3338 44.0546 59.7357C44.2708 59.6116 44.4559 59.6116 44.5485 59.9204C44.487 59.951 44.487 60.0135 44.4559 60.0135C44.0235 59.7662 43.7147 60.4459 43.8073 60.5385C43.962 60.4464 44.2087 60.3839 44.3634 60.4769C44.4559 60.6001 44.4559 60.6931 44.4559 60.7853C44.1777 60.8783 44.0235 60.9709 43.9309 61.4649C43.9309 61.4649 43.962 61.4649 43.962 61.4955C44.2092 61.2792 44.4559 61.2792 44.7342 61.3098C44.8268 61.4644 44.9814 61.4955 45.1666 61.4029C45.3828 61.2788 45.4754 61.032 45.6611 60.9079C45.6916 60.9079 45.7537 60.8783 45.7537 60.9704C45.8153 61.1251 45.6611 61.2788 45.5065 61.3723C45.5065 61.4029 45.5991 61.4644 45.7537 61.4644V60.7232C45.5065 60.7232 45.3213 60.8778 45.1671 61.1251C45.0745 61.1556 44.9819 61.2172 44.8888 61.2172C44.7347 61.1556 44.549 60.7848 44.7963 60.6922C44.8273 60.6297 44.8888 60.7227 44.9814 60.6922C45.0203 60.6748 45.0516 60.6441 45.0698 60.6056C45.0879 60.5672 45.0918 60.5235 45.0806 60.4824C45.0695 60.4414 45.044 60.4057 45.0088 60.3818C44.9737 60.3578 44.9311 60.3472 44.8888 60.3519C44.7963 60.3519 44.7037 60.5991 44.6111 60.4449C44.549 60.2903 44.6111 59.919 44.8273 59.95C44.8888 60.0125 44.9199 60.1046 44.9814 60.1046C45.2287 60.1046 45.1666 59.8574 45.1356 59.7653C45.012 59.7347 44.8273 59.8269 44.7963 59.7347C44.7347 59.5801 44.8888 59.3329 45.0125 59.3329C45.2287 59.3329 45.1671 59.5801 45.3828 59.6107C45.4754 59.6722 45.6611 59.6722 45.7537 59.7653V59.6121H45.7527ZM39.5451 54.1763C39.6688 54.0841 39.7924 54.3309 39.8234 54.1457C39.916 53.8064 39.5762 53.9295 39.5762 53.8064C39.608 53.7168 39.6665 53.6391 39.7438 53.5838C39.8211 53.5285 39.9135 53.4982 40.0086 53.4971C40.1627 53.4971 39.916 53.8064 40.2558 53.8064C40.5956 53.5591 40.1942 53.4971 40.1942 53.466C40.1942 53.2804 40.6887 53.3124 40.7503 53.4045C40.7813 53.4661 40.7813 53.4966 40.7503 53.5591C40.6887 53.6512 40.5961 53.8064 40.5651 53.929C40.5651 54.423 40.4105 55.1027 40.5956 55.4735C40.6882 55.6272 40.8429 55.6272 40.9355 55.7208C41.0896 55.8129 41.3989 56.5541 41.3989 56.5851C41.2753 56.7398 41.1827 56.8324 41.0901 56.9254C41.0901 56.987 41.1827 57.0175 41.2758 57.0175C41.3684 57.0175 41.0285 57.4194 40.8434 57.45C40.8434 57.45 40.7818 57.45 40.8434 57.5115C40.936 57.6662 41.1216 57.6046 41.3068 57.6662C41.2142 57.8824 41.1216 57.8824 41.029 58.1296C41.0906 58.2217 41.554 58.0681 41.6466 58.1296C41.6466 58.562 40.8744 58.562 40.7818 58.0681H40.7508C40.3188 58.3764 40.0095 58.2843 39.979 58.2843C40.442 58.0361 40.3494 57.944 40.5966 57.5421C40.504 57.45 40.1952 57.7893 40.01 57.6967C40.1026 57.6662 40.1642 57.5421 40.2573 57.3574C40.3498 57.1101 40.5661 57.0171 40.5661 57.0171C40.4424 56.925 39.9174 57.3254 39.9174 57.3254C40.0721 56.8314 40.3193 56.7698 40.3498 56.4921H40.3193C39.9795 56.8314 39.7327 56.8619 39.485 56.8619C39.5466 56.6772 40.3193 56.5536 40.3193 56.1207C40.3193 56.0286 40.1957 56.2138 40.0721 56.2448C39.8248 56.3064 39.6702 56.3369 39.6396 56.3064C39.7938 56.0592 39.9174 56.0592 40.1026 55.874V55.8124C39.9023 55.8731 39.6943 55.9041 39.485 55.9045L39.5466 55.874C39.7938 55.6883 40.1026 55.7203 40.1026 55.4415C40.105 55.3932 40.0949 55.3451 40.0733 55.3019C40.0517 55.2586 40.0194 55.2215 39.9795 55.1943C39.8248 55.1943 39.547 55.1327 39.547 55.0096C39.8253 55.0401 40.0725 54.9165 39.9795 54.6693C39.8869 54.4846 39.6707 54.5156 39.485 54.5772C39.2979 54.4235 39.4836 54.1763 39.5451 54.1763ZM39.0511 53.9911C39.0511 53.9911 39.1127 54.0841 39.2363 54.1767C39.2984 54.2383 39.2363 54.3314 39.2363 54.3929C39.1127 54.3925 38.9586 54.0531 39.0511 53.9911ZM39.2053 53.3739C39.36 53.3124 39.5757 53.3739 39.6377 53.466C39.6377 53.4966 39.5451 53.6517 39.4831 53.6207C39.36 53.3739 39.1127 53.4045 39.2053 53.3739ZM40.4405 53.1883H40.4095C40.3174 53.1883 40.2553 53.2804 40.1623 53.1883C40.1007 53.0962 40.0702 53.0336 40.0081 52.9721C40.1627 52.941 40.3174 53.0336 40.4405 53.1883ZM38.9586 60.7242V60.9089C38.8044 60.8793 38.7734 60.8793 38.5882 60.9089C38.6187 60.7242 38.897 60.6936 38.9586 60.7242ZM39.1437 59.8283C39.2053 59.8588 39.1127 59.9514 39.0511 60.014C39.0511 60.0755 38.897 59.9514 38.7113 59.9514C38.8039 59.8283 38.9891 59.8283 39.1437 59.8283ZM39.2363 61.4959C39.2984 61.4654 39.391 61.6816 39.36 61.6816C39.2363 61.8353 38.9586 61.8047 38.866 61.7432C38.9891 61.6816 39.1127 61.5885 39.2363 61.4959ZM42.2012 56.2458C42.2012 56.462 42.2012 56.7708 41.985 57.0791C41.7994 57.3579 41.3054 57.4194 41.1202 57.45C41.6452 57.1111 41.8614 56.6782 42.2012 56.2458ZM42.479 55.9055C42.4963 55.853 42.5293 55.8072 42.5735 55.7742C42.6178 55.7411 42.6711 55.7225 42.7263 55.7208C42.7263 55.8744 42.8499 56.0291 42.8189 56.1217C42.6642 56.3379 42.479 56.9865 42.479 57.2648C42.4175 57.5426 41.8924 58.0685 41.3054 57.975C42.7263 57.1111 42.0776 56.462 42.479 55.9055ZM42.51 55.0106C42.6026 55.1027 42.6647 55.2578 42.7573 55.3499C42.7263 55.3804 42.7263 55.442 42.7263 55.474C42.7263 55.5661 42.6026 55.5356 42.5721 55.5661C42.0466 55.8133 42.2012 56.462 41.46 56.8319C41.954 56.3384 41.8614 55.4425 42.51 55.0106ZM42.479 54.0841C42.4175 54.3003 42.4175 54.3003 42.3249 54.4235C41.954 54.5781 42.0466 54.9485 41.5526 55.0416C41.5221 55.0416 41.46 55.1031 41.46 55.0416C41.5221 54.5166 42.0466 54.1763 42.479 54.0841ZM42.3249 54.6087C42.3864 54.7008 42.4175 54.8249 42.479 54.917C42.0466 55.1948 41.985 55.6272 41.5526 55.5351C41.5526 55.5351 41.46 55.5351 41.5221 55.4735C42.0776 55.0106 41.985 54.7638 42.3249 54.6087ZM42.3864 53.7438C42.4175 53.7438 42.479 53.8369 42.51 53.8369C42.5721 53.8985 42.51 53.929 42.51 53.929C42.3864 54.0837 42.1397 54.0531 41.7688 54.1452C41.7688 54.1758 41.7073 54.1758 41.7073 54.1452C41.8614 53.9295 42.2323 53.8064 42.3864 53.7438ZM41.7998 53.6207C41.9545 53.4966 42.1397 53.4661 42.3253 53.4045V53.6207C42.1397 53.6207 41.9855 53.6512 41.7693 53.6512C41.6452 53.6517 41.7998 53.6207 41.7998 53.6207ZM42.479 53.0962C42.3864 53.1267 42.3864 53.2193 42.3249 53.2809C42.2012 53.2809 41.985 53.2193 41.8924 53.1272C42.2323 52.8489 42.51 53.0336 42.479 53.0962ZM42.9114 53.0336C42.8499 53.0962 42.8189 52.9415 42.5721 53.0336C42.5721 53.0336 42.4795 53.0336 42.4175 52.9415C42.3864 52.8494 42.3249 52.8799 42.2012 52.7253C42.51 52.7248 42.7573 52.7248 42.9114 53.0336ZM42.479 57.5426C42.479 57.6972 42.5096 57.8829 42.5716 58.0685C42.479 58.1301 42.417 58.1301 42.3244 58.3158C42.2934 58.3773 42.1387 57.9449 42.2318 57.7593C42.3249 57.6972 42.3864 57.6051 42.479 57.5426ZM42.6026 53.1883C42.7573 53.1267 42.9114 53.1267 43.004 53.3124C43.1587 53.3124 43.4054 53.3739 43.5291 53.4045C43.6216 53.4661 43.6832 53.5591 43.6832 53.6517C43.6217 53.8064 43.6217 53.8374 43.5906 53.9295C43.436 53.8989 43.004 53.466 43.004 53.466C42.973 53.466 42.973 53.6517 42.6642 53.6517C42.51 53.6207 42.479 53.3124 42.6026 53.1883ZM42.7263 53.9911C42.7573 53.8989 42.7263 53.8064 42.8189 53.8064C42.8494 53.7438 42.9114 53.7133 42.973 53.6517C43.004 53.6517 43.0656 53.7438 43.0966 53.8064C43.0656 53.9295 42.973 54.0536 42.973 54.1763C43.004 54.1763 43.004 54.2378 43.0656 54.2378C43.1582 54.1763 43.2818 54.0841 43.2818 53.9906H43.3434C43.405 53.9906 43.405 53.9906 43.436 54.0531C43.436 54.0837 43.4054 54.1452 43.3434 54.2378C43.2818 54.3309 43.1582 54.3925 43.0962 54.4235C43.0651 54.486 42.9725 54.4235 43.0036 54.5166C43.0036 54.5781 43.0651 54.6702 43.0962 54.7013C43.1577 54.7638 43.1887 54.6707 43.2813 54.7013C43.2503 54.7638 43.2503 54.8254 43.1887 54.8559C43.1582 54.8559 43.0651 54.8559 43.0036 54.8254C42.9725 54.8254 42.911 54.7638 42.911 54.7013C42.911 54.6092 42.911 54.5781 42.8494 54.5166C42.8189 54.5166 42.7568 54.486 42.7258 54.5166C42.7258 54.5166 42.6642 54.5781 42.6642 54.6087C42.6642 54.6702 42.7258 54.6702 42.7568 54.7008C42.8494 54.7633 42.8494 54.8249 42.8494 54.8554C42.911 54.917 43.0656 54.9475 42.973 55.0101C42.973 55.0406 42.9114 55.1022 42.9114 55.1332C42.8499 55.1332 42.8499 55.1027 42.8189 55.0411C42.7263 54.917 42.6026 54.7633 42.51 54.5777C42.5721 54.3925 42.6647 54.1763 42.7263 53.9911ZM42.6026 57.1111C42.6026 56.9254 42.7263 56.4009 42.9114 56.1537V56.2152C43.0661 56.2152 43.0661 56.1537 43.1897 56.0606C43.1897 56.9254 42.7263 56.7708 42.9735 58.4695C42.6026 58.1912 42.5721 57.512 42.6026 57.1111ZM42.8499 52.5396C43.1897 52.6943 43.4365 52.9721 43.4059 53.1883H43.0971C43.0045 52.9721 42.8499 52.7864 42.8499 52.5396ZM43.0971 55.0416C43.0971 55.011 43.1587 55.0416 43.1587 55.0416C43.0971 55.2578 43.0661 55.4425 43.0661 55.5666C43.0661 55.6282 43.0971 55.6282 43.0971 55.6282C43.1897 55.4745 43.3443 54.9485 43.4059 55.1031C43.5295 55.4425 43.0971 55.968 43.0045 55.9059C42.9735 55.9055 42.8499 55.3499 43.0971 55.0416ZM43.2823 55.968C43.3439 55.9055 43.4365 55.7823 43.4985 55.7208C43.7768 56.4004 43.0971 57.3259 43.6837 57.944C43.4059 57.9745 43.2823 57.6046 43.2513 57.6967C43.2513 57.8824 43.3439 58.0676 43.4059 58.2838C43.0661 58.2213 43.0045 57.7578 43.0661 57.2333C43.0971 56.7398 43.3439 56.462 43.2823 55.968ZM43.5295 54.0841H43.5911C43.6217 54.1457 43.4365 54.3314 43.5911 54.5781C43.6217 54.6702 43.6837 54.6702 43.5911 54.7638C43.5911 54.7638 43.5295 54.8254 43.5295 54.7638L43.4369 54.5781C43.3443 54.5166 43.2518 54.6087 43.0976 54.6087V54.5166C43.3439 54.486 43.4365 54.3003 43.5295 54.0841ZM43.2823 52.447C43.5911 52.6017 43.7763 52.7248 43.8689 52.941C43.8073 53.0957 43.7763 53.1883 43.7763 53.3735C43.7142 53.3735 43.7142 53.2804 43.5291 53.2188C43.4365 52.941 43.4059 52.7248 43.2823 52.447ZM43.4059 54.7638C43.4059 54.6707 43.4365 54.8559 43.5295 54.8559C43.6221 54.9175 43.6221 54.8254 43.7768 54.7638C43.7768 54.7638 43.7768 54.7013 43.7147 54.6707C43.6221 54.517 43.6221 54.3314 43.7147 54.1457H43.8073C43.9309 54.2378 43.7768 54.4235 43.8689 54.486C43.9305 54.5166 43.9615 54.5781 44.0235 54.5781C44.1777 54.5166 44.0541 54.3309 44.1161 54.3003C44.2087 54.1763 44.3013 54.0841 44.3944 54.0841C44.3944 54.1457 44.3944 54.1763 44.4559 54.2378C44.4559 54.3003 44.6106 54.3309 44.487 54.3925C44.3944 54.5166 44.3634 54.7008 44.3013 54.8559C44.2708 55.0416 43.8689 55.1953 43.5295 55.3809C43.4985 55.3504 43.5295 55.2578 43.4985 55.1031C43.5911 55.0416 43.6837 55.1031 43.7768 55.0416C43.8073 55.011 43.962 55.0416 44.024 54.9485C44.024 54.918 43.9624 54.8254 43.8694 54.8564C43.8694 54.8564 43.8078 54.8564 43.8078 54.918C43.7772 55.011 43.4374 54.9485 43.3448 54.918C43.3439 54.8559 43.4059 54.8254 43.4059 54.7638ZM43.5911 55.5356C43.6837 55.5356 43.7763 55.474 43.8689 55.4425C44.0235 55.6282 44.0235 56.2152 44.0235 56.4009C43.962 56.8324 43.9309 57.018 44.0235 57.543C43.7763 57.3583 43.7147 57.2347 43.6221 56.9875C43.5916 56.5551 43.7768 56.1226 43.5916 55.7217C43.5911 55.6893 43.4985 55.5661 43.5911 55.5356ZM44.0541 53.6207C44.2703 53.5591 44.4555 53.7128 44.4865 53.8985C44.4865 53.8985 44.5481 53.8985 44.6101 53.8369C44.7027 53.8369 44.7953 53.8369 44.8879 53.929C44.9189 53.9906 44.9189 54.0531 44.8879 54.0837C44.8263 54.1758 44.6407 54.3309 44.4865 54.1758C44.4865 54.0837 44.5481 53.9901 44.4555 53.9901C44.3008 53.9285 43.9305 54.0832 43.7142 53.9901C43.7142 53.8369 43.8689 53.6207 44.0541 53.6207ZM44.5481 52.6327C44.6407 52.6327 44.7337 52.6327 44.8263 52.6943C44.7953 52.6943 44.7953 52.7248 44.7337 52.7248C44.4865 52.941 44.3013 53.1883 44.1161 53.4045L43.8689 53.3739C43.9305 53.1267 44.0541 52.6943 44.5481 52.6327ZM44.3939 60.1061C44.4555 60.1676 44.3939 60.1061 44.3939 60.3533H44.3013C44.1777 60.2917 44.0541 60.2917 43.962 60.3533C44.0235 60.1676 44.2703 60.1061 44.3939 60.1061ZM44.2703 55.2578C44.3939 55.474 44.3939 55.7828 44.4555 56.0606C44.5481 56.4009 44.4555 56.6787 44.3939 56.987C44.0541 56.6787 44.2087 56.2152 44.1156 55.8133C44.0541 55.6893 44.023 55.5356 43.9615 55.3809C43.9305 55.3809 44.1777 55.2883 44.2703 55.2578ZM44.487 60.9714C44.487 61.033 44.487 61.0635 44.5485 61.1571H44.487C44.2708 61.1571 44.2087 61.2186 44.0546 61.2802C44.0541 61.126 44.3629 60.8788 44.487 60.9714ZM44.7027 59.3959C44.6411 59.4889 44.6101 59.5815 44.6101 59.6121C44.6101 59.6736 44.5481 59.6121 44.5481 59.6121C44.4555 59.5815 44.3629 59.52 44.2703 59.52C44.3629 59.3959 44.6101 59.2727 44.7027 59.3959ZM44.9189 52.941C45.1662 52.8795 45.4134 52.9716 45.5986 52.941H45.6601C45.5676 53.0957 45.3819 53.0331 45.1657 53.0957C44.7953 53.1262 44.7022 53.2188 44.4555 53.4966C44.3629 53.4966 44.3629 53.466 44.3008 53.466C44.4559 53.0962 44.6101 53.0336 44.9189 52.941ZM44.3939 55.1031C44.4555 55.0416 44.4865 54.9175 44.4865 54.9175C44.7027 55.1337 44.8263 55.474 44.8879 55.8749C44.9189 56.3073 45.1351 56.493 45.0736 56.493C44.9189 56.4625 44.7953 56.3384 44.7027 56.2152C44.6101 56.0296 44.6101 55.7212 44.3629 55.1337C44.3629 55.1031 44.3629 55.1337 44.3939 55.1031ZM44.487 53.5591C44.981 53.0957 45.2282 53.1883 45.6606 53.0957L45.6912 53.1262C45.6606 53.2799 45.5676 53.4656 45.4134 53.4656C45.1662 53.4961 44.981 53.4656 44.7337 53.6512C44.7027 53.6512 44.7027 53.6207 44.6101 53.6512C44.6101 53.6517 44.4559 53.5591 44.487 53.5591ZM44.6411 54.5781C44.7027 54.5166 44.7337 54.5781 44.7958 54.6087C45.2592 55.0106 44.981 55.8129 45.506 56.3073C45.5676 56.3379 45.2277 56.2458 45.1351 56.1537C44.8879 55.7212 44.981 55.3499 44.6101 54.8254C44.5481 54.7638 44.6411 54.5781 44.6411 54.5781ZM45.0115 54.3309C45.1662 54.3925 45.3819 54.4855 45.4134 54.6702C45.5986 55.1953 45.506 55.474 45.6912 56.2147C45.3824 56.2147 45.3208 55.3804 45.1662 55.0106C45.0736 54.8249 44.9189 54.6087 44.7337 54.4855C44.981 54.3925 45.0115 54.3309 45.0115 54.3309ZM45.6912 53.7438C45.6912 53.8064 45.6912 53.8064 45.6606 53.8064C45.4134 53.8985 45.3208 53.7438 45.1351 53.8369C45.0736 53.8985 45.0736 53.8064 44.981 53.8064C44.9194 53.7133 44.8884 53.7133 44.8884 53.7133C45.1662 53.5591 45.3819 53.4966 45.6912 53.7438Z" fill="#0C0E0F"/>
<path fill-rule="evenodd" clip-rule="evenodd" d="M45.7528 52.8489C45.8454 53.0961 45.8454 53.2188 45.7528 53.4045V52.8489ZM45.7528 53.6517C45.8454 53.8063 45.938 53.9295 46 53.8989C46.3399 53.4665 47.0501 53.3123 46.9579 53.0341C46.8649 52.7258 46.6176 52.7258 46.3709 52.7258C46.4324 52.5401 46.7112 52.5401 47.0505 52.5401C47.0505 52.417 47.02 52.2929 47.0505 52.2007C47.5756 52.2929 47.7918 52.8804 48.1001 52.942C48.4094 52.9725 48.7487 52.7873 48.996 52.6026H49.0265C48.996 53.1892 49.6136 52.7258 49.7992 52.8499C49.8298 53.3749 48.9344 53.4975 48.8418 53.7448C48.7487 53.992 48.9339 54.0541 48.9955 54.1466C48.9339 54.1772 48.5946 54.1772 48.6256 54.3323C48.7793 54.518 49.1811 54.4244 49.2122 54.3018C49.3668 53.9925 49.1201 53.8999 49.1201 53.8383C49.1816 53.8078 49.3057 53.8999 49.4284 53.8078C49.4589 53.7147 49.3668 53.6531 49.3668 53.6221C49.5525 53.6527 49.7367 53.8078 50.077 53.7142C50.2002 53.6527 50.077 53.5605 50.1386 53.467C50.3243 53.4975 50.5094 53.7142 50.6636 53.8073C50.8182 53.7448 50.7567 53.5601 50.7261 53.3133C50.9108 53.2818 51.096 53.8383 51.3433 53.8999C51.4354 53.9304 51.5289 53.8078 51.5289 53.7142C51.5905 53.7142 51.5905 53.7448 51.5905 53.8073C51.9308 55.0115 52.3007 53.8378 52.4864 54.0545C52.5479 54.0545 52.4864 54.0851 52.4864 54.0851C52.3942 54.1772 52.3623 54.3934 52.3942 54.5175C52.6095 55.2587 51.8377 55.443 51.8683 55.443C51.9308 57.0801 50.2312 57.1116 49.3673 56.9259C49.6145 57.4509 50.2317 57.5125 50.2937 57.9754C50.3243 58.1301 50.3858 58.5625 50.5099 58.7167C50.7572 58.8713 51.1886 58.6246 51.4048 58.4694C51.7757 58.532 51.7757 58.7472 51.8373 58.8097C52.2081 58.8713 52.4859 58.6241 52.8252 58.532C52.9183 58.6241 52.6405 58.9634 52.7947 58.9019C52.8252 58.9019 52.8252 58.8713 52.8878 58.9019C52.9183 59.0875 52.7947 59.2727 52.8252 59.3958C52.8878 59.4264 52.9183 59.4264 53.0414 59.4889C52.9799 59.581 52.8878 59.5195 52.7942 59.7362C52.8248 59.7667 53.0414 59.7667 53.1345 59.7667C53.0414 59.9514 52.7021 60.1676 52.6405 60.2607C52.7021 60.2912 52.8252 60.2912 52.8878 60.2912C52.8878 60.4459 52.609 60.4769 52.5475 60.5996C52.609 60.6301 52.6405 60.6301 52.7021 60.6926C52.609 60.8158 52.2081 60.9704 52.3002 61.032C52.3618 61.0625 52.4549 61.1251 52.5475 61.1561C52.2391 61.4033 52.0535 61.4644 51.7141 61.4644C51.7141 61.5876 51.7141 61.6806 51.59 61.8038C51.5284 61.8968 51.3428 61.9894 51.1881 61.9894C51.2812 61.6811 51.1881 61.4028 50.9409 61.4028C50.9409 61.4644 50.9104 61.4644 50.9104 61.495C51.0034 61.8033 50.8488 62.113 50.4164 62.0815C50.2307 62.3297 49.6446 62.3297 49.3668 61.9894V61.8973C49.614 61.8973 49.7367 61.8973 49.9534 61.8042C49.9534 61.6811 49.9534 61.6506 49.8918 61.588C49.6446 61.5575 49.3668 61.6811 49.1201 61.8042C49.0895 61.4649 49.3057 61.0325 49.614 61.0325C49.7062 60.7241 49.7372 60.8163 49.7372 60.7241C49.614 60.6311 49.3673 60.6 49.1816 60.6C49.1201 60.6 49.0895 60.6306 49.027 60.6C49.2742 60.1061 49.6451 60.075 49.9534 60.1991C50.0465 60.1061 50.2006 60.0135 50.2937 60.075C50.4794 60.075 50.5099 60.3834 50.6331 60.4769C50.8187 60.5385 51.0349 60.2607 51.0349 60.075C51.0349 59.6732 50.3863 59.6116 50.0469 59.6732C49.7377 59.7357 49.4599 59.6732 49.1821 59.4884C48.9964 59.3338 48.7802 59.1792 48.5955 58.9945C48.533 58.963 48.533 58.9945 48.533 59.056C48.5024 59.1792 48.4098 59.3954 48.533 59.581C48.6876 59.6732 48.9964 59.7667 49.027 60.0135C48.9964 60.1056 48.9964 60.2607 48.8733 60.3528C48.7492 60.4459 48.533 60.5385 48.533 60.7237C48.5024 60.9709 48.533 61.032 48.7492 61.2792C48.533 61.3723 48.2552 61.2792 48.1006 61.2177C48.07 61.2177 47.9159 61.4954 47.8853 61.5876C47.7307 61.6501 47.6381 61.2792 47.576 61.3098C47.5455 61.3723 47.3904 61.557 47.3904 61.6501C47.2982 61.6806 47.2057 61.3098 47.1431 61.2792C47.051 61.3723 46.9584 61.4954 46.9584 61.6501C46.8653 61.5876 46.8038 61.4954 46.7112 61.4028C46.5871 61.5565 46.3709 61.6501 46.1857 61.5876C46.1241 61.557 46.2783 61.4028 46.2162 61.3723C46.2162 61.3098 46.1857 61.3723 46.1857 61.3723C46.1241 61.4644 45.9385 61.4644 45.7533 61.4644V60.7232C45.9385 60.6926 46.1236 60.7848 46.3399 60.9079C46.432 61.032 46.432 61.2172 46.3704 61.3723C46.3704 61.4028 46.2778 61.4644 46.3399 61.4954C46.7723 61.3723 46.6176 60.9084 46.7107 60.8158C46.7723 60.7852 46.7723 60.8158 46.7723 60.8158C46.7723 61.032 46.7107 61.2792 46.8644 61.4028C46.9575 61.1251 47.1116 60.8158 47.2968 60.5991C47.3274 60.5991 47.3274 60.5991 47.3274 60.6296C47.3274 60.5991 47.2042 61.1246 47.3889 61.2783C47.482 61.0621 47.6371 60.6296 47.8839 60.4755C47.7908 60.6917 47.6677 61.031 47.8214 61.3088C48.007 61.031 47.8839 60.6292 48.2538 60.3514V60.3819C48.0991 60.7222 47.976 61.1241 48.501 61.2162V61.1547C48.0991 60.7838 48.5316 60.3509 48.6867 60.2898C48.7482 60.2593 48.7482 60.1041 48.7482 60.0736C48.6867 59.9495 48.5946 59.8574 48.532 59.8264C48.3473 59.7648 48.2237 59.6717 48.1621 59.487C48.0996 59.2398 48.2237 58.961 48.2543 58.7448C48.3158 58.6527 48.007 58.3749 47.7908 58.1277C47.6677 58.467 47.2352 58.467 47.1422 58.1277C46.7107 58.3749 46.7723 58.4671 46.4635 58.7448C46.4635 58.8074 46.3394 58.7448 46.3394 58.7143C46.4315 58.5296 46.525 58.3134 46.5866 58.1277C46.6172 58.0346 46.4635 58.1893 46.2778 58.2823C46.1232 58.3745 45.9074 58.436 45.9074 58.4671C45.8148 58.8689 45.9074 59.0851 46.3704 59.1773C46.7723 59.2398 47.1422 59.0851 47.4209 59.2703C47.9149 59.6097 47.5746 60.1037 46.8949 60.1967C46.5866 60.2583 45.938 60.2889 45.8454 59.8564C45.8454 59.8259 45.8144 59.7643 45.7528 59.7643V59.6097C45.8144 59.6712 45.8454 59.6712 45.8454 59.7338C45.9995 59.949 46.1232 59.949 46.432 60.0116C46.6176 60.0116 46.8028 60.0116 46.9579 59.949C47.2973 59.8569 47.2973 59.424 47.0501 59.424C46.7107 59.3935 46.432 59.4865 46.1236 59.3935C45.9385 59.3319 45.8148 59.2703 45.6912 59.2398L45.7528 58.1893C46.3394 57.8809 46.7723 57.6953 47.3894 57.3559C47.4209 57.3559 47.5441 57.3244 47.6376 57.3559C48.3478 58.3134 48.6872 59.0851 49.9839 59.2708C50.4789 59.3939 51.0345 59.1777 51.2507 59.7342C51.4044 60.0736 51.096 60.6292 50.6636 60.6292C50.5715 60.6917 50.4789 60.537 50.4164 60.4445C50.3858 60.3514 50.3858 60.1972 50.2307 60.1657C50.077 60.1972 49.9835 60.3514 49.9529 60.475C49.8298 60.6912 50.1386 60.6287 50.2002 60.7222C50.3858 60.9695 50.0465 61.1547 49.8918 60.9695C49.7062 60.8774 49.7062 61.3713 49.8303 61.4019C49.9839 61.4635 50.0775 61.3088 50.1386 61.2778C50.4164 61.1547 50.571 61.6486 50.2002 61.5556C50.077 61.5861 50.1386 61.7412 50.2002 61.8334C50.2932 61.988 50.6326 61.988 50.7261 61.8028C50.7567 61.6797 50.6636 61.5866 50.6636 61.4945C50.8493 61.031 51.59 61.3088 51.8373 61.3713C51.8678 61.3713 52.115 61.3088 52.2391 61.2167C52.0229 61.1551 51.6826 60.9695 51.621 60.8774C52.0535 60.9069 52.2081 60.8774 52.3623 60.7843C52.147 60.7843 51.9308 60.7227 51.7146 60.5986C52.0539 60.5986 52.3012 60.6292 52.6095 60.3824C52.3012 60.3824 51.8377 60.4449 51.7146 60.1977C51.8683 60.1977 52.1155 60.2898 52.3012 60.2593C52.4558 60.1977 52.7952 60.0736 52.703 59.95C52.4558 60.0125 52.3947 59.8579 51.8382 59.95C51.8382 59.8268 52.5484 59.8268 52.4868 59.7347C52.3627 59.7347 51.9618 59.6722 51.8382 59.6106V59.5801C52.2091 59.5801 52.61 59.4254 52.703 59.1477C52.4868 59.2407 51.8688 59.3949 51.7766 59.2718C52.2401 59.2412 52.703 58.7152 52.61 58.7152C52.3627 58.8699 52.0544 58.9009 51.7766 58.9009C51.7151 58.9009 51.7151 58.9009 51.6836 58.8704C51.6836 58.8088 51.6836 58.7463 51.622 58.7463C51.4058 58.5616 50.9423 59.2412 50.3868 58.8704C50.1395 58.6231 50.1395 58.3148 49.9849 58.0361C49.8678 57.8137 49.7107 57.6149 49.5215 57.4495C49.2131 57.2638 48.9964 56.986 48.7802 56.6777C48.7497 56.492 48.3488 56.0596 48.07 56.1212C47.8853 56.1527 47.7307 56.1527 47.545 56.2143C46.8038 56.3999 46.3714 56.6467 45.7537 56.7393V54.8554C45.8153 54.8554 45.8153 54.8249 45.8153 54.8249C45.8153 54.7633 45.7537 54.7633 45.7537 54.7008V53.6517H45.7528ZM45.7528 57.8518C45.7528 57.8518 45.8144 57.8518 45.8144 57.7893C45.8148 57.7898 45.7528 57.7898 45.7528 57.8518ZM46 60.9088C46.031 60.9088 46.1236 60.9714 46.1852 61.0329C46.3399 61.126 45.9074 61.4038 45.7528 61.3107C45.8459 61.2181 45.9385 61.0635 46 60.9088ZM46.2778 53.8369C46.5866 53.5591 47.1116 53.4045 47.1116 53.1267C47.1422 52.7864 46.6176 52.6943 46.6792 52.6943C46.8033 52.6021 47.2052 52.7248 47.2973 52.9415C47.2973 52.972 47.3278 52.6332 47.2357 52.4475C47.7297 52.6947 47.7297 53.0961 47.5751 53.3739C47.5751 53.4045 47.6376 53.466 47.6376 53.4045C47.8223 53.0336 48.3163 53.0961 48.6256 52.941C48.6872 52.941 48.6872 52.9716 48.6872 52.9716C48.6256 53.0331 48.595 53.1262 48.5325 53.1878C48.5325 53.2183 48.595 53.2183 48.595 53.2183C49.2122 53.2183 49.614 52.9711 49.614 52.9711C49.614 53.0327 49.521 53.2794 48.595 53.4961C48.4094 53.8054 48.7797 54.0526 48.6872 54.0832C48.4399 54.0832 48.3163 53.9901 48.3478 53.7429C48.3163 53.7123 48.3163 53.7123 48.2547 53.7123C48.0075 54.0526 48.502 54.5161 48.7797 54.6082C48.7797 54.6698 48.7492 54.6698 48.6261 54.6698C47.6686 54.485 47.8848 53.6507 47.02 53.7433C46.7728 53.8059 46.3403 54.0836 46.2788 54.423C46.2167 54.7008 46.3714 55.0411 46.6797 55.1027C47.2978 55.2883 47.8228 55.0105 48.4404 54.7633C48.6876 54.8249 48.996 54.8249 49.1201 54.6702C49.1816 54.6702 48.9344 54.5781 48.8728 54.5165H48.9344C49.2737 54.486 49.4594 54.3309 49.4284 53.9295C49.614 53.9295 49.8303 54.3003 49.9534 54.3314C50.0465 54.3929 49.7997 53.9295 49.7372 53.8374C50.0465 53.8989 50.2937 53.9911 50.4168 54.3314C50.5099 54.3314 50.2937 53.7133 50.3863 53.7443C50.8497 53.9915 50.8187 54.424 50.8497 54.3314C51.0044 54.1767 50.9113 53.991 51.0044 53.8374C51.2516 53.991 51.4984 54.1767 51.4053 54.486V54.5165C51.4984 54.486 51.591 54.3003 51.6215 54.1762C51.7762 54.3309 51.8688 54.5781 51.7762 54.8249L51.7146 54.8554C51.7762 54.917 51.8377 54.917 51.8683 54.8554C52.1155 54.7633 52.0229 54.4855 52.2086 54.392C52.3623 54.8554 52.2391 55.1948 51.6826 55.3494C51.6826 55.5656 51.621 55.8129 51.5905 56.0596C51.4359 56.3999 51.1581 56.5846 50.8493 56.7393C50.3858 56.8624 49.3673 56.8624 48.996 56.5846C48.9344 56.5541 48.8728 56.4615 48.8423 56.3999C49.4594 56.5846 51.0965 56.6777 51.4048 55.8129C51.621 55.1332 51.0039 54.7633 50.5715 54.7008C49.5525 54.6087 48.6876 55.0411 47.5445 55.3804C46.8959 55.5661 45.9385 55.5351 45.9079 54.7008C45.9074 54.3924 46 54.0531 46.2778 53.8369ZM49.6136 61.1566C49.5918 61.1957 49.583 61.2407 49.5885 61.2852C49.5939 61.3296 49.6134 61.3712 49.6441 61.4038C49.7057 61.4959 49.4279 61.4654 49.2733 61.5575C49.2733 61.4654 49.4284 61.1566 49.6136 61.1566ZM49.8298 60.2917C49.7954 60.3728 49.7644 60.4553 49.7367 60.539C49.6136 60.4468 49.5205 60.4468 49.2733 60.4774C49.3052 60.3533 49.6446 60.1061 49.8298 60.2917ZM49.9839 61.8978C50.0465 61.9283 50.077 61.9899 50.1386 62.0209C50.077 62.114 49.6446 62.1756 49.6136 61.9904C49.7367 61.9899 49.8913 61.9899 49.9839 61.8978ZM51.1881 61.3728C51.1576 61.3102 51.4354 61.3728 51.4974 61.4033C51.528 61.4649 51.5895 61.6506 51.4043 61.7427C51.4043 61.5575 51.4044 61.4959 51.1881 61.3728ZM45.8459 55.1952C45.8459 55.1337 45.8459 55.1337 45.9074 55.1337C46.1236 55.6892 46.7107 55.7207 47.2357 55.6277C48.2237 55.474 49.4589 54.9175 50.2932 54.9175C50.571 54.9175 51.2507 55.0416 51.2507 55.474C51.2507 55.7823 51.1576 55.968 50.9414 56.1217C50.6636 56.3073 49.9534 56.4004 49.6446 56.4004C49.4589 56.4004 48.7487 56.3379 48.5325 56.0601C48.4094 55.968 48.2242 55.9054 48.0075 55.9054C47.3278 55.9054 46.5866 56.3073 46 56.3073C45.8459 56.3073 45.8148 55.4425 45.8459 55.1952ZM47.3278 53.991C47.5751 54.1767 47.7913 54.517 48.1621 54.7013C48.1621 54.7638 47.4209 55.0105 47.1422 55.0105C46.6172 55.0105 46.4635 54.7633 46.4635 54.5165C46.4639 54.2378 46.9579 53.8063 47.3278 53.991Z" fill="#0C0E0F"/>
<path fill-rule="evenodd" clip-rule="evenodd" d="M37.1673 55.5355L38.4646 55.0105L37.9396 56.3379L39.2984 56.8629L37.9396 57.4194L38.4646 58.7467L37.1673 58.2217L36.6423 59.5195L36.0557 58.2217L34.7279 58.7467L35.284 57.4194L34.0798 56.9254V56.8323L35.284 56.3383L34.759 55.011L36.0557 55.536L36.6423 54.2383L37.1673 55.5355ZM37.0743 55.7212L38.2789 55.2578L37.7845 56.462L38.9887 56.8629L37.7845 57.3578L38.2789 58.5315L37.0743 58.068L36.6419 59.1792L36.1789 58.0361L34.9742 58.531L35.4377 57.3574L34.3256 56.8624L35.4377 56.3999L34.9742 55.2568L36.1789 55.7203L36.6419 54.5161L37.0743 55.7212Z" fill="#FAE935"/>
</g>
<defs>
<clipPath id="clip0_8_627">
<rect width="92" height="92" fill="white" transform="translate(0 -2)"/>
</clipPath>
</defs>
</svg>
