<svg width="953" height="1060" viewBox="0 0 953 1060" fill="none" xmlns="http://www.w3.org/2000/svg">
<g filter="url(#filter0_d_2015_1124)">
<path d="M5 41.25C5 27.0127 5 19.8941 7.81466 14.4756C10.1866 9.90956 13.9096 6.18655 18.4756 3.81466C23.8941 1 31.0127 1 45.25 1H902.92C918.866 1 926.839 1 932.907 4.15242C938.021 6.80894 942.191 10.9787 944.848 16.0927C948 22.1614 948 30.1343 948 46.08V1010.75C948 1024.99 948 1032.11 945.185 1037.52C942.813 1042.09 939.09 1045.81 934.524 1048.19C929.106 1051 921.987 1051 907.75 1051H45.25C31.0127 1051 23.8941 1051 18.4756 1048.19C13.9096 1045.81 10.1866 1042.09 7.81466 1037.52C5 1032.11 5 1024.99 5 1010.75V41.25Z" fill="white"/>
</g>
<defs>
<filter id="filter0_d_2015_1124" x="0" y="0" width="953" height="1060" filterUnits="userSpaceOnUse" color-interpolation-filters="sRGB">
<feFlood flood-opacity="0" result="BackgroundImageFix"/>
<feColorMatrix in="SourceAlpha" type="matrix" values="0 0 0 0 0 0 0 0 0 0 0 0 0 0 0 0 0 0 127 0" result="hardAlpha"/>
<feOffset dy="4"/>
<feGaussianBlur stdDeviation="2.5"/>
<feComposite in2="hardAlpha" operator="out"/>
<feColorMatrix type="matrix" values="0 0 0 0 0.474219 0 0 0 0 0.770719 0 0 0 0 0.9375 0 0 0 0.38 0"/>
<feBlend mode="normal" in2="BackgroundImageFix" result="effect1_dropShadow_2015_1124"/>
<feBlend mode="normal" in="SourceGraphic" in2="effect1_dropShadow_2015_1124" result="shape"/>
</filter>
</defs>
</svg>
