<svg width="25" height="22" viewBox="0 0 25 22" fill="none" xmlns="http://www.w3.org/2000/svg">
<path fill-rule="evenodd" clip-rule="evenodd" d="M9.02312 1.91318L16.6266 5.33408C18.9379 6.37395 20.757 7.19234 21.991 7.96734C23.2098 8.73282 24.1623 9.64041 24.1623 10.9573C24.1623 12.2742 23.2098 13.1818 21.991 13.9473C20.757 14.7223 18.9379 15.5407 16.6266 16.5805L9.02312 20.0014C7.61041 20.637 6.51142 21.1315 5.65328 21.4524C4.81356 21.7664 4.06307 21.9726 3.39575 21.9001C1.77717 21.724 0.384398 20.6141 0.0473133 19.0472C-0.0955541 18.383 0.104216 17.6401 0.391237 16.8683C0.688418 16.0692 1.16075 15.0432 1.76248 13.736L1.77871 13.7008C2.24899 12.6792 2.42998 12.276 2.52233 11.8739C2.66124 11.2689 2.66124 10.6457 2.52233 10.0407C2.42998 9.63858 2.24899 9.23546 1.77871 8.21385L1.76248 8.17861C1.16075 6.87147 0.688417 5.84543 0.391236 5.04632C0.104215 4.27453 -0.095554 3.53159 0.0473142 2.86746C0.3844 1.30049 1.77717 0.190578 3.39575 0.0145679C4.06307 -0.0579987 4.81356 0.148224 5.65328 0.462234C6.51142 0.783129 7.61042 1.27758 9.02312 1.91318ZM5.06283 2.04121C4.23774 1.73267 3.81623 1.66455 3.57799 1.69045C2.57995 1.79898 1.85918 2.46054 1.69538 3.22199C1.6649 3.36367 1.68618 3.69211 1.97128 4.45872C2.24355 5.19085 2.68857 6.15898 3.31001 7.50893C3.32362 7.53851 3.33708 7.56773 3.35038 7.59661C3.76733 8.50207 4.02924 9.07083 4.16533 9.66347C4.36126 10.5167 4.36126 11.3979 4.16533 12.2512C4.02924 12.8438 3.76733 13.4126 3.35037 14.318C3.33707 14.3469 3.32362 14.3761 3.31001 14.4057C2.68857 15.7556 2.24355 16.7238 1.97128 17.4559C1.68618 18.2225 1.6649 18.551 1.69538 18.6926C1.85918 19.4541 2.57994 20.1156 3.57799 20.2242C3.81623 20.2501 4.23774 20.182 5.06283 19.8734C5.86337 19.5741 6.9124 19.1026 8.36189 18.4504L15.8668 15.0739C18.2609 13.9967 19.9716 13.2249 21.0944 12.5197C22.2445 11.7974 22.4765 11.3282 22.4765 10.9573C22.4765 10.5864 22.2445 10.1172 21.0944 9.39491C19.9716 8.68975 18.2609 7.91789 15.8668 6.84075L8.3619 3.46421C6.9124 2.81207 5.86337 2.34057 5.06283 2.04121Z" fill="#02040F"/>
</svg>
